<?xml version="1.0" encoding="us-ascii" standalone="no"?><svg xmlns="http://www.w3.org/2000/svg" xmlns:xlink="http://www.w3.org/1999/xlink" contentStyleType="text/css" height="1420px" preserveAspectRatio="none" style="width:1689px;height:1420px;background:#FFFFFF;" version="1.1" viewBox="0 0 1689 1420" width="1689px" zoomAndPan="magnify"><defs><filter height="300%" id="f3nmhggjx7qqi" width="300%" x="-1" y="-1"><feGaussianBlur result="blurOut" stdDeviation="2.0"/><feColorMatrix in="blurOut" result="blurOut2" type="matrix" values="0 0 0 0 0 0 0 0 0 0 0 0 0 0 0 0 0 0 .4 0"/><feOffset dx="4.0" dy="4.0" in="blurOut2" result="blurOut3"/><feBlend in="SourceGraphic" in2="blurOut3" mode="normal"/></filter></defs><g><rect fill="none" filter="url(#f3nmhggjx7qqi)" height="75.9316" style="stroke:#000000;stroke-width:2.0;" width="369" x="127" y="222.7305"/><rect fill="none" filter="url(#f3nmhggjx7qqi)" height="163.8633" style="stroke:#000000;stroke-width:2.0;" width="1405.5" x="270" y="547.1465"/><rect fill="none" filter="url(#f3nmhggjx7qqi)" height="346.3711" style="stroke:#000000;stroke-width:2.0;" width="1102" x="486" y="930.1836"/><line style="stroke:#A80036;stroke-width:1.0;stroke-dasharray:5.0,5.0;" x1="23" x2="23" y1="88.4883" y2="1335.8652"/><line style="stroke:#A80036;stroke-width:1.0;stroke-dasharray:5.0,5.0;" x1="166" x2="166" y1="88.4883" y2="1335.8652"/><line style="stroke:#A80036;stroke-width:1.0;stroke-dasharray:5.0,5.0;" x1="313" x2="313" y1="88.4883" y2="1335.8652"/><line style="stroke:#A80036;stroke-width:1.0;stroke-dasharray:5.0,5.0;" x1="421" x2="421" y1="88.4883" y2="1335.8652"/><line style="stroke:#A80036;stroke-width:1.0;stroke-dasharray:5.0,5.0;" x1="542" x2="542" y1="88.4883" y2="1335.8652"/><line style="stroke:#A80036;stroke-width:1.0;stroke-dasharray:5.0,5.0;" x1="787" x2="787" y1="88.4883" y2="1335.8652"/><line style="stroke:#A80036;stroke-width:1.0;stroke-dasharray:5.0,5.0;" x1="909" x2="909" y1="88.4883" y2="1335.8652"/><line style="stroke:#A80036;stroke-width:1.0;stroke-dasharray:5.0,5.0;" x1="1038" x2="1038" y1="88.4883" y2="1335.8652"/><line style="stroke:#A80036;stroke-width:1.0;stroke-dasharray:5.0,5.0;" x1="1202" x2="1202" y1="88.4883" y2="1335.8652"/><line style="stroke:#A80036;stroke-width:1.0;stroke-dasharray:5.0,5.0;" x1="1357" x2="1357" y1="88.4883" y2="1335.8652"/><line style="stroke:#A80036;stroke-width:1.0;stroke-dasharray:5.0,5.0;" x1="1499" x2="1499" y1="88.4883" y2="1335.8652"/><line style="stroke:#A80036;stroke-width:1.0;stroke-dasharray:5.0,5.0;" x1="1641.5" x2="1641.5" y1="88.4883" y2="1335.8652"/><text fill="#000000" font-family="sans-serif" font-size="14" lengthAdjust="spacing" textLength="31" x="5" y="85.5352">User</text><ellipse cx="23.5" cy="15" fill="#FEFECE" filter="url(#f3nmhggjx7qqi)" rx="8" ry="8" style="stroke:#A80036;stroke-width:2.0;"/><path d="M23.5,23 L23.5,50 M10.5,31 L36.5,31 M23.5,50 L10.5,65 M23.5,50 L36.5,65 " fill="none" filter="url(#f3nmhggjx7qqi)" style="stroke:#A80036;stroke-width:2.0;"/><text fill="#000000" font-family="sans-serif" font-size="14" lengthAdjust="spacing" textLength="31" x="5" y="1348.4004">User</text><ellipse cx="23.5" cy="1361.3535" fill="#FEFECE" filter="url(#f3nmhggjx7qqi)" rx="8" ry="8" style="stroke:#A80036;stroke-width:2.0;"/><path d="M23.5,1369.3535 L23.5,1396.3535 M10.5,1377.3535 L36.5,1377.3535 M23.5,1396.3535 L10.5,1411.3535 M23.5,1396.3535 L36.5,1411.3535 " fill="none" filter="url(#f3nmhggjx7qqi)" style="stroke:#A80036;stroke-width:2.0;"/><rect fill="#FEFECE" filter="url(#f3nmhggjx7qqi)" height="30.4883" style="stroke:#A80036;stroke-width:1.5;" width="55" x="137" y="53"/><text fill="#000000" font-family="sans-serif" font-size="14" lengthAdjust="spacing" textLength="41" x="144" y="73.5352">Player</text><rect fill="#FEFECE" filter="url(#f3nmhggjx7qqi)" height="30.4883" style="stroke:#A80036;stroke-width:1.5;" width="55" x="137" y="1334.8652"/><text fill="#000000" font-family="sans-serif" font-size="14" lengthAdjust="spacing" textLength="41" x="144" y="1355.4004">Player</text><rect fill="#FEFECE" filter="url(#f3nmhggjx7qqi)" height="30.4883" style="stroke:#A80036;stroke-width:1.5;" width="63" x="280" y="53"/><text fill="#000000" font-family="sans-serif" font-size="14" lengthAdjust="spacing" textLength="49" x="287" y="73.5352">Emitter</text><rect fill="#FEFECE" filter="url(#f3nmhggjx7qqi)" height="30.4883" style="stroke:#A80036;stroke-width:1.5;" width="63" x="280" y="1334.8652"/><text fill="#000000" font-family="sans-serif" font-size="14" lengthAdjust="spacing" textLength="49" x="287" y="1355.4004">Emitter</text><rect fill="#FEFECE" filter="url(#f3nmhggjx7qqi)" height="30.4883" style="stroke:#A80036;stroke-width:1.5;" width="125" x="357" y="53"/><text fill="#000000" font-family="sans-serif" font-size="14" lengthAdjust="spacing" textLength="111" x="364" y="73.5352">PipelineProvider</text><rect fill="#FEFECE" filter="url(#f3nmhggjx7qqi)" height="30.4883" style="stroke:#A80036;stroke-width:1.5;" width="125" x="357" y="1334.8652"/><text fill="#000000" font-family="sans-serif" font-size="14" lengthAdjust="spacing" textLength="111" x="364" y="1355.4004">PipelineProvider</text><rect fill="#FEFECE" filter="url(#f3nmhggjx7qqi)" height="30.4883" style="stroke:#A80036;stroke-width:1.5;" width="89" x="496" y="53"/><text fill="#000000" font-family="sans-serif" font-size="14" lengthAdjust="spacing" textLength="75" x="503" y="73.5352">HlsPipeline</text><rect fill="#FEFECE" filter="url(#f3nmhggjx7qqi)" height="30.4883" style="stroke:#A80036;stroke-width:1.5;" width="89" x="496" y="1334.8652"/><text fill="#000000" font-family="sans-serif" font-size="14" lengthAdjust="spacing" textLength="75" x="503" y="1355.4004">HlsPipeline</text><rect fill="#FEFECE" filter="url(#f3nmhggjx7qqi)" height="30.4883" style="stroke:#A80036;stroke-width:1.5;" width="99" x="736" y="53"/><text fill="#000000" font-family="sans-serif" font-size="14" lengthAdjust="spacing" textLength="85" x="743" y="73.5352">AbrManager</text><rect fill="#FEFECE" filter="url(#f3nmhggjx7qqi)" height="30.4883" style="stroke:#A80036;stroke-width:1.5;" width="99" x="736" y="1334.8652"/><text fill="#000000" font-family="sans-serif" font-size="14" lengthAdjust="spacing" textLength="85" x="743" y="1355.4004">AbrManager</text><rect fill="#FEFECE" filter="url(#f3nmhggjx7qqi)" height="30.4883" style="stroke:#A80036;stroke-width:1.5;" width="116" x="849" y="53"/><text fill="#000000" font-family="sans-serif" font-size="14" lengthAdjust="spacing" textLength="102" x="856" y="73.5352">CMCDManager</text><rect fill="#FEFECE" filter="url(#f3nmhggjx7qqi)" height="30.4883" style="stroke:#A80036;stroke-width:1.5;" width="116" x="849" y="1334.8652"/><text fill="#000000" font-family="sans-serif" font-size="14" lengthAdjust="spacing" textLength="102" x="856" y="1355.4004">CMCDManager</text><rect fill="#FEFECE" filter="url(#f3nmhggjx7qqi)" height="30.4883" style="stroke:#A80036;stroke-width:1.5;" width="114" x="979" y="53"/><text fill="#000000" font-family="sans-serif" font-size="14" lengthAdjust="spacing" textLength="100" x="986" y="73.5352">CMSDManager</text><rect fill="#FEFECE" filter="url(#f3nmhggjx7qqi)" height="30.4883" style="stroke:#A80036;stroke-width:1.5;" width="114" x="979" y="1334.8652"/><text fill="#000000" font-family="sans-serif" font-size="14" lengthAdjust="spacing" textLength="100" x="986" y="1355.4004">CMSDManager</text><rect fill="#FEFECE" filter="url(#f3nmhggjx7qqi)" height="30.4883" style="stroke:#A80036;stroke-width:1.5;" width="186" x="1107" y="53"/><text fill="#000000" font-family="sans-serif" font-size="14" lengthAdjust="spacing" textLength="172" x="1114" y="73.5352">ContentSteeringManager</text><rect fill="#FEFECE" filter="url(#f3nmhggjx7qqi)" height="30.4883" style="stroke:#A80036;stroke-width:1.5;" width="186" x="1107" y="1334.8652"/><text fill="#000000" font-family="sans-serif" font-size="14" lengthAdjust="spacing" textLength="172" x="1114" y="1355.4004">ContentSteeringManager</text><rect fill="#FEFECE" filter="url(#f3nmhggjx7qqi)" height="30.4883" style="stroke:#A80036;stroke-width:1.5;" width="97" x="1307" y="53"/><text fill="#000000" font-family="sans-serif" font-size="14" lengthAdjust="spacing" textLength="83" x="1314" y="73.5352">Interceptors</text><rect fill="#FEFECE" filter="url(#f3nmhggjx7qqi)" height="30.4883" style="stroke:#A80036;stroke-width:1.5;" width="97" x="1307" y="1334.8652"/><text fill="#000000" font-family="sans-serif" font-size="14" lengthAdjust="spacing" textLength="83" x="1314" y="1355.4004">Interceptors</text><rect fill="#FEFECE" filter="url(#f3nmhggjx7qqi)" height="30.4883" style="stroke:#A80036;stroke-width:1.5;" width="153" x="1421" y="53"/><text fill="#000000" font-family="sans-serif" font-size="14" lengthAdjust="spacing" textLength="139" x="1428" y="73.5352">NetworkingManager</text><rect fill="#FEFECE" filter="url(#f3nmhggjx7qqi)" height="30.4883" style="stroke:#A80036;stroke-width:1.5;" width="153" x="1421" y="1334.8652"/><text fill="#000000" font-family="sans-serif" font-size="14" lengthAdjust="spacing" textLength="139" x="1428" y="1355.4004">NetworkingManager</text><rect fill="#FEFECE" filter="url(#f3nmhggjx7qqi)" height="30.4883" style="stroke:#A80036;stroke-width:1.5;" width="44" x="1617.5" y="53"/><text fill="#000000" font-family="sans-serif" font-size="14" lengthAdjust="spacing" textLength="30" x="1624.5" y="73.5352">CDN</text><rect fill="#FEFECE" filter="url(#f3nmhggjx7qqi)" height="30.4883" style="stroke:#A80036;stroke-width:1.5;" width="44" x="1617.5" y="1334.8652"/><text fill="#000000" font-family="sans-serif" font-size="14" lengthAdjust="spacing" textLength="30" x="1624.5" y="1355.4004">CDN</text><polygon fill="#A80036" points="154.5,115.7988,164.5,119.7988,154.5,123.7988,158.5,119.7988" style="stroke:#A80036;stroke-width:1.0;"/><line style="stroke:#A80036;stroke-width:1.0;stroke-dasharray:2.0,2.0;" x1="23.5" x2="160.5" y1="119.7988" y2="119.7988"/><text fill="#000000" font-family="sans-serif" font-size="13" font-weight="bold" lengthAdjust="spacing" textLength="9" x="30.5" y="115.0566">1</text><text fill="#000000" font-family="sans-serif" font-size="13" lengthAdjust="spacing" textLength="106" x="43.5" y="115.0566">subscribe:events</text><polygon fill="#A80036" points="301.5,145.1094,311.5,149.1094,301.5,153.1094,305.5,149.1094" style="stroke:#A80036;stroke-width:1.0;"/><line style="stroke:#A80036;stroke-width:1.0;stroke-dasharray:2.0,2.0;" x1="166.5" x2="307.5" y1="149.1094" y2="149.1094"/><text fill="#000000" font-family="sans-serif" font-size="13" font-weight="bold" lengthAdjust="spacing" textLength="9" x="173.5" y="144.3672">2</text><text fill="#000000" font-family="sans-serif" font-size="13" lengthAdjust="spacing" textLength="110" x="186.5" y="144.3672">subscribe: events</text><polygon fill="#A80036" points="154.5,174.4199,164.5,178.4199,154.5,182.4199,158.5,178.4199" style="stroke:#A80036;stroke-width:1.0;"/><line style="stroke:#A80036;stroke-width:1.0;stroke-dasharray:2.0,2.0;" x1="23.5" x2="160.5" y1="178.4199" y2="178.4199"/><text fill="#000000" font-family="sans-serif" font-size="13" font-weight="bold" lengthAdjust="spacing" textLength="9" x="30.5" y="173.6777">3</text><text fill="#000000" font-family="sans-serif" font-size="13" lengthAdjust="spacing" textLength="77" x="43.5" y="173.6777">load(source)</text><polygon fill="#A80036" points="409.5,203.7305,419.5,207.7305,409.5,211.7305,413.5,207.7305" style="stroke:#A80036;stroke-width:1.0;"/><line style="stroke:#A80036;stroke-width:1.0;stroke-dasharray:2.0,2.0;" x1="166.5" x2="415.5" y1="207.7305" y2="207.7305"/><text fill="#000000" font-family="sans-serif" font-size="13" font-weight="bold" lengthAdjust="spacing" textLength="9" x="173.5" y="202.9883">4</text><text fill="#000000" font-family="sans-serif" font-size="13" lengthAdjust="spacing" textLength="65" x="186.5" y="202.9883">mimeType</text><path d="M127,222.7305 L189,222.7305 L189,230.041 L179,240.041 L127,240.041 L127,222.7305 " fill="#EEEEEE" style="stroke:#000000;stroke-width:1.0;"/><rect fill="none" height="75.9316" style="stroke:#000000;stroke-width:2.0;" width="369" x="127" y="222.7305"/><text fill="#000000" font-family="sans-serif" font-size="13" font-weight="bold" lengthAdjust="spacing" textLength="17" x="142" y="236.2988">alt</text><polygon fill="#A80036" points="177.5,257.3516,167.5,261.3516,177.5,265.3516,173.5,261.3516" style="stroke:#A80036;stroke-width:1.0;"/><line style="stroke:#A80036;stroke-width:1.0;stroke-dasharray:2.0,2.0;" x1="171.5" x2="420.5" y1="261.3516" y2="261.3516"/><text fill="#000000" font-family="sans-serif" font-size="13" font-weight="bold" lengthAdjust="spacing" textLength="9" x="183.5" y="256.6094">5</text><text fill="#000000" font-family="sans-serif" font-size="13" lengthAdjust="spacing" textLength="24" x="196.5" y="256.6094">null</text><polygon fill="#A80036" points="301.5,286.6621,311.5,290.6621,301.5,294.6621,305.5,290.6621" style="stroke:#A80036;stroke-width:1.0;"/><line style="stroke:#A80036;stroke-width:1.0;stroke-dasharray:2.0,2.0;" x1="166.5" x2="307.5" y1="290.6621" y2="290.6621"/><text fill="#000000" font-family="sans-serif" font-size="13" font-weight="bold" lengthAdjust="spacing" textLength="9" x="173.5" y="285.9199">6</text><text fill="#000000" font-family="sans-serif" font-size="13" lengthAdjust="spacing" textLength="76" x="186.5" y="285.9199">trigger:error</text><polygon fill="#A80036" points="177.5,322.9727,167.5,326.9727,177.5,330.9727,173.5,326.9727" style="stroke:#A80036;stroke-width:1.0;"/><line style="stroke:#A80036;stroke-width:1.0;stroke-dasharray:2.0,2.0;" x1="171.5" x2="420.5" y1="326.9727" y2="326.9727"/><text fill="#000000" font-family="sans-serif" font-size="13" font-weight="bold" lengthAdjust="spacing" textLength="9" x="183.5" y="322.2305">7</text><text fill="#000000" font-family="sans-serif" font-size="13" lengthAdjust="spacing" textLength="50" x="196.5" y="322.2305">pipeline</text><polygon fill="#A80036" points="530.5,352.2832,540.5,356.2832,530.5,360.2832,534.5,356.2832" style="stroke:#A80036;stroke-width:1.0;"/><line style="stroke:#A80036;stroke-width:1.0;stroke-dasharray:2.0,2.0;" x1="166.5" x2="536.5" y1="356.2832" y2="356.2832"/><text fill="#000000" font-family="sans-serif" font-size="13" font-weight="bold" lengthAdjust="spacing" textLength="9" x="173.5" y="351.541">8</text><text fill="#000000" font-family="sans-serif" font-size="13" lengthAdjust="spacing" textLength="79" x="186.5" y="351.541">start(source)</text><polygon fill="#A80036" points="897,381.5938,907,385.5938,897,389.5938,901,385.5938" style="stroke:#A80036;stroke-width:1.0;"/><line style="stroke:#A80036;stroke-width:1.0;stroke-dasharray:2.0,2.0;" x1="542.5" x2="903" y1="385.5938" y2="385.5938"/><text fill="#000000" font-family="sans-serif" font-size="13" font-weight="bold" lengthAdjust="spacing" textLength="9" x="549.5" y="380.8516">9</text><text fill="#000000" font-family="sans-serif" font-size="13" lengthAdjust="spacing" textLength="47" x="562.5" y="380.8516">request</text><polygon fill="#A80036" points="553.5,410.9043,543.5,414.9043,553.5,418.9043,549.5,414.9043" style="stroke:#A80036;stroke-width:1.0;"/><line style="stroke:#A80036;stroke-width:1.0;stroke-dasharray:2.0,2.0;" x1="547.5" x2="908" y1="414.9043" y2="414.9043"/><text fill="#000000" font-family="sans-serif" font-size="13" font-weight="bold" lengthAdjust="spacing" textLength="18" x="559.5" y="410.1621">10</text><text fill="#000000" font-family="sans-serif" font-size="13" lengthAdjust="spacing" textLength="47" x="581.5" y="410.1621">request</text><polygon fill="#A80036" points="1487.5,440.2148,1497.5,444.2148,1487.5,448.2148,1491.5,444.2148" style="stroke:#A80036;stroke-width:1.0;"/><line style="stroke:#A80036;stroke-width:1.0;stroke-dasharray:2.0,2.0;" x1="542.5" x2="1493.5" y1="444.2148" y2="444.2148"/><text fill="#000000" font-family="sans-serif" font-size="13" font-weight="bold" lengthAdjust="spacing" textLength="18" x="549.5" y="439.4727">11</text><text fill="#000000" font-family="sans-serif" font-size="13" lengthAdjust="spacing" textLength="47" x="571.5" y="439.4727">request</text><polygon fill="#A80036" points="1368.5,469.5254,1358.5,473.5254,1368.5,477.5254,1364.5,473.5254" style="stroke:#A80036;stroke-width:1.0;"/><line style="stroke:#A80036;stroke-width:1.0;stroke-dasharray:2.0,2.0;" x1="1362.5" x2="1498.5" y1="473.5254" y2="473.5254"/><text fill="#000000" font-family="sans-serif" font-size="13" font-weight="bold" lengthAdjust="spacing" textLength="18" x="1374.5" y="468.7832">12</text><text fill="#000000" font-family="sans-serif" font-size="13" lengthAdjust="spacing" textLength="47" x="1396.5" y="468.7832">request</text><polygon fill="#A80036" points="1487.5,498.8359,1497.5,502.8359,1487.5,506.8359,1491.5,502.8359" style="stroke:#A80036;stroke-width:1.0;"/><line style="stroke:#A80036;stroke-width:1.0;stroke-dasharray:2.0,2.0;" x1="1357.5" x2="1493.5" y1="502.8359" y2="502.8359"/><text fill="#000000" font-family="sans-serif" font-size="13" font-weight="bold" lengthAdjust="spacing" textLength="18" x="1364.5" y="498.0938">13</text><text fill="#000000" font-family="sans-serif" font-size="13" lengthAdjust="spacing" textLength="47" x="1386.5" y="498.0938">request</text><polygon fill="#A80036" points="1629.5,528.1465,1639.5,532.1465,1629.5,536.1465,1633.5,532.1465" style="stroke:#A80036;stroke-width:1.0;"/><line style="stroke:#A80036;stroke-width:1.0;stroke-dasharray:2.0,2.0;" x1="1499.5" x2="1635.5" y1="532.1465" y2="532.1465"/><text fill="#000000" font-family="sans-serif" font-size="13" font-weight="bold" lengthAdjust="spacing" textLength="18" x="1506.5" y="527.4043">14</text><text fill="#000000" font-family="sans-serif" font-size="13" lengthAdjust="spacing" textLength="47" x="1528.5" y="527.4043">request</text><path d="M270,547.1465 L332,547.1465 L332,554.457 L322,564.457 L270,564.457 L270,547.1465 " fill="#EEEEEE" style="stroke:#000000;stroke-width:1.0;"/><rect fill="none" height="163.8633" style="stroke:#000000;stroke-width:2.0;" width="1405.5" x="270" y="547.1465"/><text fill="#000000" font-family="sans-serif" font-size="13" font-weight="bold" lengthAdjust="spacing" textLength="17" x="285" y="560.7148">alt</text><polygon fill="#A80036" points="1510.5,581.7676,1500.5,585.7676,1510.5,589.7676,1506.5,585.7676" style="stroke:#A80036;stroke-width:1.0;"/><line style="stroke:#A80036;stroke-width:1.0;stroke-dasharray:2.0,2.0;" x1="1504.5" x2="1640.5" y1="585.7676" y2="585.7676"/><text fill="#000000" font-family="sans-serif" font-size="13" font-weight="bold" lengthAdjust="spacing" textLength="18" x="1516.5" y="581.0254">15</text><text fill="#000000" font-family="sans-serif" font-size="13" lengthAdjust="spacing" textLength="96" x="1538.5" y="581.0254">response:failed</text><polygon fill="#A80036" points="1368.5,611.0781,1358.5,615.0781,1368.5,619.0781,1364.5,615.0781" style="stroke:#A80036;stroke-width:1.0;"/><line style="stroke:#A80036;stroke-width:1.0;stroke-dasharray:2.0,2.0;" x1="1362.5" x2="1498.5" y1="615.0781" y2="615.0781"/><text fill="#000000" font-family="sans-serif" font-size="13" font-weight="bold" lengthAdjust="spacing" textLength="18" x="1374.5" y="610.3359">16</text><text fill="#000000" font-family="sans-serif" font-size="13" lengthAdjust="spacing" textLength="96" x="1396.5" y="610.3359">response:failed</text><polygon fill="#A80036" points="1487.5,640.3887,1497.5,644.3887,1487.5,648.3887,1491.5,644.3887" style="stroke:#A80036;stroke-width:1.0;"/><line style="stroke:#A80036;stroke-width:1.0;stroke-dasharray:2.0,2.0;" x1="1357.5" x2="1493.5" y1="644.3887" y2="644.3887"/><text fill="#000000" font-family="sans-serif" font-size="13" font-weight="bold" lengthAdjust="spacing" textLength="18" x="1364.5" y="639.6465">17</text><text fill="#000000" font-family="sans-serif" font-size="13" lengthAdjust="spacing" textLength="96" x="1386.5" y="639.6465">response:failed</text><polygon fill="#A80036" points="553.5,669.6992,543.5,673.6992,553.5,677.6992,549.5,673.6992" style="stroke:#A80036;stroke-width:1.0;"/><line style="stroke:#A80036;stroke-width:1.0;stroke-dasharray:2.0,2.0;" x1="547.5" x2="1498.5" y1="673.6992" y2="673.6992"/><text fill="#000000" font-family="sans-serif" font-size="13" font-weight="bold" lengthAdjust="spacing" textLength="18" x="559.5" y="668.957">18</text><text fill="#000000" font-family="sans-serif" font-size="13" lengthAdjust="spacing" textLength="96" x="581.5" y="668.957">response:failed</text><polygon fill="#A80036" points="324.5,699.0098,314.5,703.0098,324.5,707.0098,320.5,703.0098" style="stroke:#A80036;stroke-width:1.0;"/><line style="stroke:#A80036;stroke-width:1.0;stroke-dasharray:2.0,2.0;" x1="318.5" x2="541.5" y1="703.0098" y2="703.0098"/><text fill="#000000" font-family="sans-serif" font-size="13" font-weight="bold" lengthAdjust="spacing" textLength="18" x="330.5" y="698.2676">19</text><text fill="#000000" font-family="sans-serif" font-size="13" lengthAdjust="spacing" textLength="76" x="352.5" y="698.2676">trigger:error</text><polygon fill="#A80036" points="1510.5,735.3203,1500.5,739.3203,1510.5,743.3203,1506.5,739.3203" style="stroke:#A80036;stroke-width:1.0;"/><line style="stroke:#A80036;stroke-width:1.0;stroke-dasharray:2.0,2.0;" x1="1504.5" x2="1640.5" y1="739.3203" y2="739.3203"/><text fill="#000000" font-family="sans-serif" font-size="13" font-weight="bold" lengthAdjust="spacing" textLength="18" x="1516.5" y="734.5781">20</text><text fill="#000000" font-family="sans-serif" font-size="13" lengthAdjust="spacing" textLength="57" x="1538.5" y="734.5781">response</text><polygon fill="#A80036" points="1368.5,764.6309,1358.5,768.6309,1368.5,772.6309,1364.5,768.6309" style="stroke:#A80036;stroke-width:1.0;"/><line style="stroke:#A80036;stroke-width:1.0;stroke-dasharray:2.0,2.0;" x1="1362.5" x2="1498.5" y1="768.6309" y2="768.6309"/><text fill="#000000" font-family="sans-serif" font-size="13" font-weight="bold" lengthAdjust="spacing" textLength="18" x="1374.5" y="763.8887">21</text><text fill="#000000" font-family="sans-serif" font-size="13" lengthAdjust="spacing" textLength="57" x="1396.5" y="763.8887">response</text><polygon fill="#A80036" points="1487.5,793.9414,1497.5,797.9414,1487.5,801.9414,1491.5,797.9414" style="stroke:#A80036;stroke-width:1.0;"/><line style="stroke:#A80036;stroke-width:1.0;stroke-dasharray:2.0,2.0;" x1="1357.5" x2="1493.5" y1="797.9414" y2="797.9414"/><text fill="#000000" font-family="sans-serif" font-size="13" font-weight="bold" lengthAdjust="spacing" textLength="18" x="1364.5" y="793.1992">22</text><text fill="#000000" font-family="sans-serif" font-size="13" lengthAdjust="spacing" textLength="57" x="1386.5" y="793.1992">response</text><polygon fill="#A80036" points="553.5,823.252,543.5,827.252,553.5,831.252,549.5,827.252" style="stroke:#A80036;stroke-width:1.0;"/><line style="stroke:#A80036;stroke-width:1.0;stroke-dasharray:2.0,2.0;" x1="547.5" x2="1498.5" y1="827.252" y2="827.252"/><text fill="#000000" font-family="sans-serif" font-size="13" font-weight="bold" lengthAdjust="spacing" textLength="18" x="559.5" y="822.5098">23</text><text fill="#000000" font-family="sans-serif" font-size="13" lengthAdjust="spacing" textLength="57" x="581.5" y="822.5098">response</text><polygon fill="#A80036" points="1026,852.5625,1036,856.5625,1026,860.5625,1030,856.5625" style="stroke:#A80036;stroke-width:1.0;"/><line style="stroke:#A80036;stroke-width:1.0;stroke-dasharray:2.0,2.0;" x1="542.5" x2="1032" y1="856.5625" y2="856.5625"/><text fill="#000000" font-family="sans-serif" font-size="13" font-weight="bold" lengthAdjust="spacing" textLength="18" x="549.5" y="851.8203">24</text><text fill="#000000" font-family="sans-serif" font-size="13" lengthAdjust="spacing" textLength="57" x="571.5" y="851.8203">response</text><polygon fill="#A80036" points="553.5,881.873,543.5,885.873,553.5,889.873,549.5,885.873" style="stroke:#A80036;stroke-width:1.0;"/><line style="stroke:#A80036;stroke-width:1.0;stroke-dasharray:2.0,2.0;" x1="547.5" x2="1037" y1="885.873" y2="885.873"/><text fill="#000000" font-family="sans-serif" font-size="13" font-weight="bold" lengthAdjust="spacing" textLength="18" x="559.5" y="881.1309">25</text><text fill="#000000" font-family="sans-serif" font-size="13" lengthAdjust="spacing" textLength="71" x="581.5" y="881.1309">Server Data</text><polygon fill="#A80036" points="775.5,911.1836,785.5,915.1836,775.5,919.1836,779.5,915.1836" style="stroke:#A80036;stroke-width:1.0;"/><line style="stroke:#A80036;stroke-width:1.0;stroke-dasharray:2.0,2.0;" x1="542.5" x2="781.5" y1="915.1836" y2="915.1836"/><text fill="#000000" font-family="sans-serif" font-size="13" font-weight="bold" lengthAdjust="spacing" textLength="18" x="549.5" y="910.4414">26</text><text fill="#000000" font-family="sans-serif" font-size="13" lengthAdjust="spacing" textLength="71" x="571.5" y="910.4414">Server Data</text><path d="M486,930.1836 L548,930.1836 L548,937.4941 L538,947.4941 L486,947.4941 L486,930.1836 " fill="#EEEEEE" style="stroke:#000000;stroke-width:1.0;"/><rect fill="none" height="346.3711" style="stroke:#000000;stroke-width:2.0;" width="1102" x="486" y="930.1836"/><text fill="#000000" font-family="sans-serif" font-size="13" font-weight="bold" lengthAdjust="spacing" textLength="17" x="501" y="943.752">alt</text><text fill="#000000" font-family="sans-serif" font-size="11" font-weight="bold" lengthAdjust="spacing" textLength="112" x="563" y="942.8184">[MASTER PLAYLIST]</text><polygon fill="#A80036" points="1190,964.8047,1200,968.8047,1190,972.8047,1194,968.8047" style="stroke:#A80036;stroke-width:1.0;"/><line style="stroke:#A80036;stroke-width:1.0;stroke-dasharray:2.0,2.0;" x1="542.5" x2="1196" y1="968.8047" y2="968.8047"/><text fill="#000000" font-family="sans-serif" font-size="13" font-weight="bold" lengthAdjust="spacing" textLength="18" x="549.5" y="964.0625">27</text><text fill="#000000" font-family="sans-serif" font-size="13" lengthAdjust="spacing" textLength="63" x="571.5" y="964.0625">Server URI</text><polygon fill="#A80036" points="1487.5,994.1152,1497.5,998.1152,1487.5,1002.1152,1491.5,998.1152" style="stroke:#A80036;stroke-width:1.0;"/><line style="stroke:#A80036;stroke-width:1.0;stroke-dasharray:2.0,2.0;" x1="1202" x2="1493.5" y1="998.1152" y2="998.1152"/><text fill="#000000" font-family="sans-serif" font-size="13" font-weight="bold" lengthAdjust="spacing" textLength="18" x="1209" y="993.373">28</text><text fill="#000000" font-family="sans-serif" font-size="13" lengthAdjust="spacing" textLength="77" x="1231" y="993.373">start polling</text><path d="M1131,1011.1152 L1131,1066.1152 L1427,1066.1152 L1427,1021.1152 L1417,1011.1152 L1131,1011.1152 " fill="#FBFB77" filter="url(#f3nmhggjx7qqi)" style="stroke:#A80036;stroke-width:1.0;"/><path d="M1417,1011.1152 L1417,1021.1152 L1427,1021.1152 L1417,1011.1152 " fill="#FBFB77" style="stroke:#A80036;stroke-width:1.0;"/><text fill="#000000" font-family="sans-serif" font-size="13" lengthAdjust="spacing" textLength="151" x="1197" y="1028.6836">content steering polling</text><text fill="#000000" font-family="sans-serif" font-size="13" lengthAdjust="spacing" textLength="94" x="1197" y="1043.9941">is out of scope</text><text fill="#000000" font-family="sans-serif" font-size="13" lengthAdjust="spacing" textLength="101" x="1197" y="1059.3047">for this diagram</text><line style="stroke:#A80036;stroke-width:1.0;stroke-dasharray:2.0,2.0;" x1="542.5" x2="584.5" y1="1097.3574" y2="1097.3574"/><line style="stroke:#A80036;stroke-width:1.0;stroke-dasharray:2.0,2.0;" x1="584.5" x2="584.5" y1="1097.3574" y2="1110.3574"/><line style="stroke:#A80036;stroke-width:1.0;stroke-dasharray:2.0,2.0;" x1="543.5" x2="584.5" y1="1110.3574" y2="1110.3574"/><polygon fill="#A80036" points="553.5,1106.3574,543.5,1110.3574,553.5,1114.3574,549.5,1110.3574" style="stroke:#A80036;stroke-width:1.0;"/><text fill="#000000" font-family="sans-serif" font-size="13" font-weight="bold" lengthAdjust="spacing" textLength="18" x="549.5" y="1092.6152">29</text><text fill="#000000" font-family="sans-serif" font-size="13" lengthAdjust="spacing" textLength="209" x="571.5" y="1092.6152">group media into adaptation sets</text><polygon fill="#A80036" points="775.5,1135.668,785.5,1139.668,775.5,1143.668,779.5,1139.668" style="stroke:#A80036;stroke-width:1.0;"/><line style="stroke:#A80036;stroke-width:1.0;stroke-dasharray:2.0,2.0;" x1="542.5" x2="781.5" y1="1139.668" y2="1139.668"/><text fill="#000000" font-family="sans-serif" font-size="13" font-weight="bold" lengthAdjust="spacing" textLength="18" x="549.5" y="1134.9258">30</text><text fill="#000000" font-family="sans-serif" font-size="13" lengthAdjust="spacing" textLength="130" x="571.5" y="1134.9258">get initial bandwidth</text><polygon fill="#A80036" points="553.5,1164.9785,543.5,1168.9785,553.5,1172.9785,549.5,1168.9785" style="stroke:#A80036;stroke-width:1.0;"/><line style="stroke:#A80036;stroke-width:1.0;stroke-dasharray:2.0,2.0;" x1="547.5" x2="786.5" y1="1168.9785" y2="1168.9785"/><text fill="#000000" font-family="sans-serif" font-size="13" font-weight="bold" lengthAdjust="spacing" textLength="18" x="559.5" y="1164.2363">31</text><text fill="#000000" font-family="sans-serif" font-size="13" lengthAdjust="spacing" textLength="106" x="581.5" y="1164.2363">initial bandwidth</text><line style="stroke:#A80036;stroke-width:1.0;stroke-dasharray:2.0,2.0;" x1="542.5" x2="584.5" y1="1198.2891" y2="1198.2891"/><line style="stroke:#A80036;stroke-width:1.0;stroke-dasharray:2.0,2.0;" x1="584.5" x2="584.5" y1="1198.2891" y2="1211.2891"/><line style="stroke:#A80036;stroke-width:1.0;stroke-dasharray:2.0,2.0;" x1="543.5" x2="584.5" y1="1211.2891" y2="1211.2891"/><polygon fill="#A80036" points="553.5,1207.2891,543.5,1211.2891,553.5,1215.2891,549.5,1211.2891" style="stroke:#A80036;stroke-width:1.0;"/><text fill="#000000" font-family="sans-serif" font-size="13" font-weight="bold" lengthAdjust="spacing" textLength="18" x="549.5" y="1193.5469">32</text><text fill="#000000" font-family="sans-serif" font-size="13" lengthAdjust="spacing" textLength="171" x="571.5" y="1193.5469">select initial adaptation set</text><line style="stroke:#000000;stroke-width:1.0;stroke-dasharray:2.0,2.0;" x1="486" x2="1588" y1="1220.2891" y2="1220.2891"/><text fill="#000000" font-family="sans-serif" font-size="11" font-weight="bold" lengthAdjust="spacing" textLength="103" x="491" y="1230.9238">[MEDIA PLAYLIST]</text><line style="stroke:#A80036;stroke-width:1.0;stroke-dasharray:2.0,2.0;" x1="542.5" x2="584.5" y1="1255.5547" y2="1255.5547"/><line style="stroke:#A80036;stroke-width:1.0;stroke-dasharray:2.0,2.0;" x1="584.5" x2="584.5" y1="1255.5547" y2="1268.5547"/><line style="stroke:#A80036;stroke-width:1.0;stroke-dasharray:2.0,2.0;" x1="543.5" x2="584.5" y1="1268.5547" y2="1268.5547"/><polygon fill="#A80036" points="553.5,1264.5547,543.5,1268.5547,553.5,1272.5547,549.5,1268.5547" style="stroke:#A80036;stroke-width:1.0;"/><text fill="#000000" font-family="sans-serif" font-size="13" font-weight="bold" lengthAdjust="spacing" textLength="18" x="549.5" y="1250.8125">33</text><text fill="#000000" font-family="sans-serif" font-size="13" lengthAdjust="spacing" textLength="174" x="571.5" y="1250.8125">create single adaptation set</text><line style="stroke:#A80036;stroke-width:1.0;stroke-dasharray:2.0,2.0;" x1="542.5" x2="584.5" y1="1304.8652" y2="1304.8652"/><line style="stroke:#A80036;stroke-width:1.0;stroke-dasharray:2.0,2.0;" x1="584.5" x2="584.5" y1="1304.8652" y2="1317.8652"/><line style="stroke:#A80036;stroke-width:1.0;stroke-dasharray:2.0,2.0;" x1="543.5" x2="584.5" y1="1317.8652" y2="1317.8652"/><polygon fill="#A80036" points="553.5,1313.8652,543.5,1317.8652,553.5,1321.8652,549.5,1317.8652" style="stroke:#A80036;stroke-width:1.0;"/><text fill="#000000" font-family="sans-serif" font-size="13" font-weight="bold" lengthAdjust="spacing" textLength="18" x="549.5" y="1300.123">34</text><text fill="#000000" font-family="sans-serif" font-size="13" lengthAdjust="spacing" textLength="125" x="571.5" y="1300.123">create VOD timeline</text><path d="M417,1290.0547 L417,1315.0547 L533,1315.0547 L533,1300.0547 L523,1290.0547 L417,1290.0547 " fill="#FBFB77" filter="url(#f3nmhggjx7qqi)" style="stroke:#A80036;stroke-width:1.0;"/><path d="M523,1290.0547 L523,1300.0547 L533,1300.0547 L523,1290.0547 " fill="#FBFB77" style="stroke:#A80036;stroke-width:1.0;"/><text fill="#000000" font-family="sans-serif" font-size="13" lengthAdjust="spacing" textLength="95" x="423" y="1307.623">VOD by default</text><!--SRC=[dLNBZjim3BphAtXh2pJDtOS2GRp01jXiWtMsG8-ApJZ2of8gqLdaxqix3pyJ9BqEXoDoIDDVTaGkHDEfqz9GMUWVgIsc0V-MQ5ASP4hcNXP2o9AiAOiDUY72XpBWRK26Kx8UtWF3JdfIgN8i0oij3ptegL14VPfog9N1bRTxbVM2ppgSunryjl5BQMJUey-NytWSJyPnQmWD9OJebSd7A0jc-1GTjnWwWLUaJ-i_hgJDurSXAajWClbviYA2K6v2wjK68zppkq4S0pNdv4sR12VMG4TRcNqDjkJ2lhKr-bv6KAW2rmU7GceI_N17qvHQZzP3NkNSNeJUMo_GPBTrt7bUBQtM6Ba_OfykrRT2DRKrmWXyjOA1H0iSwfr9VQN1W1hg85Gdj4VTSDle_-doBZIKQWuCN5SApfg0qLOgZTcTbNPpxgluddTwFdTJ-dxVM9Wx6dwequTQVAItaNLCug5Y2nrg9UZtZCUIv42kkLjT7cy5B6V9-kaDLY-pFo-BP3qiPVHONNJUtnPYd7BDeFf316SrFv4BOmd1LahZAj-xfp0zabZaoBheg02s9B1R2AdbmxFbVmFj63t_HdWXe7fC33his9XxMpeeaDD06R8WC-b8ah860l9LlELjZiH9YfJKi94c-rGPxKJ363utPD-iBg36j7cZMvj07H2MJ_5YTdsS7RdKesJx0nkeSQ36Nz1TwRz_nK1yyElpMyzJuvP41MyEaE5MbfeQ__y1]--></g></svg>
