<svg xmlns="http://www.w3.org/2000/svg" xmlns:xlink="http://www.w3.org/1999/xlink" xmlns:lucid="lucid" width="3000" height="2000"><g transform="translate(1000 0)" lucid:page-tab-id="-k13SfCuIcxl"><path d="M-1000 0h3000v2000h-3000z" fill="#fff"/><path d="M342.17 806.08v719" stroke="#3a414a" stroke-linecap="round" fill="none"/><path d="M-718.33 661.58a6 6 0 0 1 6-6h228a6 6 0 0 1 6 6v48a6 6 0 0 1-6 6h-228a6 6 0 0 1-6-6z" stroke="#000" stroke-opacity="0" fill="#fff" fill-opacity="0"/><use xlink:href="#a" transform="matrix(1,0,0,1,-713.3333333333333,660.5833333333335) translate(39.074074074074076 30.27777777777778)"/><use xlink:href="#b" transform="matrix(1,0,0,1,-713.3333333333333,660.5833333333335) translate(108.0864197530864 30.27777777777778)"/><path d="M-718.33 901.58a6 6 0 0 1 6-6h228a6 6 0 0 1 6 6v48a6 6 0 0 1-6 6h-228a6 6 0 0 1-6-6z" stroke="#000" stroke-opacity="0" fill="#fff" fill-opacity="0"/><use xlink:href="#c" transform="matrix(1,0,0,1,-713.3333333333333,900.5833333333335) translate(46.48148148148148 30.27777777777778)"/><use xlink:href="#b" transform="matrix(1,0,0,1,-713.3333333333333,900.5833333333335) translate(100.67901234567901 30.27777777777778)"/><path d="M-458.33 891.58a6 6 0 0 1 6-6h148a6 6 0 0 1 6 6v68a6 6 0 0 1-6 6h-148a6 6 0 0 1-6-6z" stroke="#3a414a" fill="#fff3d9"/><use xlink:href="#d" transform="matrix(1,0,0,1,-446.33333333333326,897.5833333333335) translate(61.82716049382716 31.77777777777778)"/><path d="M-298.33 891.58a6 6 0 0 1 6-6h148a6 6 0 0 1 6 6v68a6 6 0 0 1-6 6h-148a6 6 0 0 1-6-6z" stroke="#3a414a" fill="#fff3d9"/><use xlink:href="#e" transform="matrix(1,0,0,1,-286.33333333333326,897.5833333333335) translate(61.82716049382716 31.77777777777778)"/><path d="M-138.33 891.58a6 6 0 0 1 6-6h148a6 6 0 0 1 6 6v68a6 6 0 0 1-6 6h-148a6 6 0 0 1-6-6z" stroke="#3a414a" fill="#ffd9d9"/><use xlink:href="#f" transform="matrix(1,0,0,1,-126.33333333333326,897.5833333333335) translate(61.82716049382716 31.77777777777778)"/><path d="M21.67 891.58a6 6 0 0 1 6-6h148a6 6 0 0 1 6 6v68a6 6 0 0 1-6 6h-148a6 6 0 0 1-6-6z" stroke="#3a414a" fill="#ffd9d9"/><use xlink:href="#g" transform="matrix(1,0,0,1,33.66666666666674,897.5833333333335) translate(61.82716049382716 31.77777777777778)"/><path d="M181.67 891.58a6 6 0 0 1 6-6h148a6 6 0 0 1 6 6v68a6 6 0 0 1-6 6h-148a6 6 0 0 1-6-6z" stroke="#3a414a" fill="#dedeff"/><use xlink:href="#h" transform="matrix(1,0,0,1,193.66666666666674,897.5833333333335) translate(61.82716049382716 31.77777777777778)"/><path d="M341.67 891.58a6 6 0 0 1 6-6h148a6 6 0 0 1 6 6v68a6 6 0 0 1-6 6h-148a6 6 0 0 1-6-6z" stroke="#3a414a" fill="#9391ff"/><use xlink:href="#i" transform="matrix(1,0,0,1,353.66666666666674,897.5833333333335) translate(61.82716049382716 31.77777777777778)"/><path d="M501.67 891.58a6 6 0 0 1 6-6h148a6 6 0 0 1 6 6v68a6 6 0 0 1-6 6h-148a6 6 0 0 1-6-6z" stroke="#3a414a" fill="#9391ff"/><use xlink:href="#j" transform="matrix(1,0,0,1,513.6666666666667,897.5833333333335) translate(61.82716049382716 31.77777777777778)"/><path d="M-458.33 1051.58a6 6 0 0 1 6-6h68a6 6 0 0 1 6 6v68a6 6 0 0 1-6 6h-68a6 6 0 0 1-6-6z" stroke="#3a414a" fill="#fff3d9"/><use xlink:href="#d" transform="matrix(1,0,0,1,-446.33333333333326,1057.5833333333335) translate(21.82716049382716 31.77777777777778)"/><path d="M-378.33 1051.58a6 6 0 0 1 6-6h68a6 6 0 0 1 6 6v68a6 6 0 0 1-6 6h-68a6 6 0 0 1-6-6z" stroke="#3a414a" fill="#fff3d9"/><use xlink:href="#e" transform="matrix(1,0,0,1,-366.33333333333326,1057.5833333333335) translate(21.82716049382716 31.77777777777778)"/><path d="M-298.33 1051.58a6 6 0 0 1 6-6h68a6 6 0 0 1 6 6v68a6 6 0 0 1-6 6h-68a6 6 0 0 1-6-6z" stroke="#3a414a" fill="#fff3d9"/><use xlink:href="#f" transform="matrix(1,0,0,1,-286.33333333333326,1057.5833333333335) translate(21.82716049382716 31.77777777777778)"/><path d="M-218.33 1051.58a6 6 0 0 1 6-6h68a6 6 0 0 1 6 6v68a6 6 0 0 1-6 6h-68a6 6 0 0 1-6-6z" stroke="#3a414a" fill="#fff3d9"/><use xlink:href="#g" transform="matrix(1,0,0,1,-206.33333333333326,1057.5833333333335) translate(21.82716049382716 31.77777777777778)"/><path d="M-138.33 1051.58a6 6 0 0 1 6-6h68a6 6 0 0 1 6 6v68a6 6 0 0 1-6 6h-68a6 6 0 0 1-6-6z" stroke="#3a414a" fill="#ffd9d9"/><use xlink:href="#h" transform="matrix(1,0,0,1,-126.33333333333326,1057.5833333333335) translate(21.82716049382716 31.77777777777778)"/><path d="M-58.33 1051.58a6 6 0 0 1 6-6h68a6 6 0 0 1 6 6v68a6 6 0 0 1-6 6h-68a6 6 0 0 1-6-6z" stroke="#3a414a" fill="#ffd9d9"/><use xlink:href="#i" transform="matrix(1,0,0,1,-46.33333333333326,1057.5833333333335) translate(21.82716049382716 31.77777777777778)"/><path d="M21.67 1051.58a6 6 0 0 1 6-6h68a6 6 0 0 1 6 6v68a6 6 0 0 1-6 6h-68a6 6 0 0 1-6-6z" stroke="#3a414a" fill="#ffd9d9"/><use xlink:href="#j" transform="matrix(1,0,0,1,33.66666666666674,1057.5833333333335) translate(21.82716049382716 31.77777777777778)"/><path d="M101.67 1051.58a6 6 0 0 1 6-6h68a6 6 0 0 1 6 6v68a6 6 0 0 1-6 6h-68a6 6 0 0 1-6-6z" stroke="#3a414a" fill="#ffd9d9"/><use xlink:href="#k" transform="matrix(1,0,0,1,113.66666666666674,1057.5833333333335) translate(21.82716049382716 31.77777777777778)"/><path d="M181.67 1051.58a6 6 0 0 1 6-6h68a6 6 0 0 1 6 6v68a6 6 0 0 1-6 6h-68a6 6 0 0 1-6-6z" stroke="#3a414a" fill="#dedeff"/><use xlink:href="#l" transform="matrix(1,0,0,1,193.66666666666674,1057.5833333333335) translate(21.82716049382716 31.77777777777778)"/><path d="M261.67 1051.58a6 6 0 0 1 6-6h68a6 6 0 0 1 6 6v68a6 6 0 0 1-6 6h-68a6 6 0 0 1-6-6z" stroke="#3a414a" fill="#dedeff"/><use xlink:href="#m" transform="matrix(1,0,0,1,273.66666666666674,1057.5833333333335) translate(15.654320987654321 31.77777777777778)"/><path d="M341.67 1051.58a6 6 0 0 1 6-6h68a6 6 0 0 1 6 6v68a6 6 0 0 1-6 6h-68a6 6 0 0 1-6-6z" stroke="#3a414a" fill="#9391ff"/><use xlink:href="#n" transform="matrix(1,0,0,1,353.66666666666674,1057.5833333333335) translate(16.487654320987655 31.77777777777778)"/><path d="M421.67 1051.58a6 6 0 0 1 6-6h68a6 6 0 0 1 6 6v68a6 6 0 0 1-6 6h-68a6 6 0 0 1-6-6z" stroke="#3a414a" fill="#9391ff"/><use xlink:href="#o" transform="matrix(1,0,0,1,433.66666666666674,1057.5833333333335) translate(15.654320987654321 31.77777777777778)"/><path d="M501.67 1051.58a6 6 0 0 1 6-6h68a6 6 0 0 1 6 6v68a6 6 0 0 1-6 6h-68a6 6 0 0 1-6-6z" stroke="#3a414a" fill="#9391ff"/><use xlink:href="#p" transform="matrix(1,0,0,1,513.6666666666667,1057.5833333333335) translate(15.654320987654321 31.77777777777778)"/><path d="M581.67 1051.58a6 6 0 0 1 6-6h68a6 6 0 0 1 6 6v68a6 6 0 0 1-6 6h-68a6 6 0 0 1-6-6z" stroke="#3a414a" fill="#9391ff"/><use xlink:href="#q" transform="matrix(1,0,0,1,593.6666666666667,1057.5833333333335) translate(15.654320987654321 31.77777777777778)"/><path d="M-458.83 1371.58a6 6 0 0 1 6-6h308.5a6 6 0 0 1 6 6v68a6 6 0 0 1-6 6h-308.5a6 6 0 0 1-6-6z" stroke="#3a414a" fill="#fff3d9"/><use xlink:href="#d" transform="matrix(1,0,0,1,-446.8333333333335,1377.583333333334) translate(142.32716049382717 31.77777777777778)"/><path d="M-138.33 1371.58a6 6 0 0 1 6-6h308.5a6 6 0 0 1 6 6v68a6 6 0 0 1-6 6h-308.5a6 6 0 0 1-6-6z" stroke="#3a414a" fill="#ffd9d9"/><use xlink:href="#e" transform="matrix(1,0,0,1,-126.33333333333326,1377.583333333334) translate(142.32716049382717 31.77777777777778)"/><path d="M182.17 1371.58a6 6 0 0 1 6-6h469a6 6 0 0 1 6 6v68a6 6 0 0 1-6 6h-469a6 6 0 0 1-6-6z" stroke="#3a414a" fill="#dedeff"/><use xlink:href="#f" transform="matrix(1,0,0,1,194.16666666666674,1377.583333333334) translate(222.82716049382717 31.77777777777778)"/><path d="M-458.33 1211.58a6 6 0 0 1 6-6h28a6 6 0 0 1 6 6v68a6 6 0 0 1-6 6h-28a6 6 0 0 1-6-6z" stroke="#3a414a" fill="#fff3d9"/><use xlink:href="#d" transform="matrix(1,0,0,1,-446.33333333333326,1217.5833333333335) translate(1.8271604938271606 31.77777777777778)"/><path d="M-418.33 1211.58a6 6 0 0 1 6-6h28a6 6 0 0 1 6 6v68a6 6 0 0 1-6 6h-28a6 6 0 0 1-6-6z" stroke="#3a414a" fill="#fff3d9"/><use xlink:href="#e" transform="matrix(1,0,0,1,-406.33333333333326,1217.5833333333335) translate(1.8271604938271606 31.77777777777778)"/><path d="M-378.33 1211.58a6 6 0 0 1 6-6h28a6 6 0 0 1 6 6v68a6 6 0 0 1-6 6h-28a6 6 0 0 1-6-6z" stroke="#3a414a" fill="#fff3d9"/><use xlink:href="#f" transform="matrix(1,0,0,1,-366.33333333333326,1217.5833333333335) translate(1.8271604938271606 31.77777777777778)"/><path d="M-338.33 1211.58a6 6 0 0 1 6-6h28a6 6 0 0 1 6 6v68a6 6 0 0 1-6 6h-28a6 6 0 0 1-6-6z" stroke="#3a414a" fill="#fff3d9"/><use xlink:href="#g" transform="matrix(1,0,0,1,-326.33333333333326,1217.5833333333335) translate(1.8271604938271606 31.77777777777778)"/><path d="M-298.33 1211.58a6 6 0 0 1 6-6h28a6 6 0 0 1 6 6v68a6 6 0 0 1-6 6h-28a6 6 0 0 1-6-6z" stroke="#3a414a" fill="#fff3d9"/><use xlink:href="#h" transform="matrix(1,0,0,1,-286.33333333333326,1217.583333333333) translate(1.8271604938271606 31.77777777777778)"/><path d="M-258.33 1211.58a6 6 0 0 1 6-6h28a6 6 0 0 1 6 6v68a6 6 0 0 1-6 6h-28a6 6 0 0 1-6-6z" stroke="#3a414a" fill="#fff3d9"/><use xlink:href="#i" transform="matrix(1,0,0,1,-246.33333333333326,1217.583333333333) translate(1.8271604938271606 31.77777777777778)"/><path d="M-218.33 1211.58a6 6 0 0 1 6-6h28a6 6 0 0 1 6 6v68a6 6 0 0 1-6 6h-28a6 6 0 0 1-6-6z" stroke="#3a414a" fill="#fff3d9"/><use xlink:href="#j" transform="matrix(1,0,0,1,-206.33333333333326,1217.583333333333) translate(1.8271604938271606 31.77777777777778)"/><path d="M-178.33 1211.58a6 6 0 0 1 6-6h28a6 6 0 0 1 6 6v68a6 6 0 0 1-6 6h-28a6 6 0 0 1-6-6z" stroke="#3a414a" fill="#fff3d9"/><use xlink:href="#k" transform="matrix(1,0,0,1,-166.33333333333326,1217.583333333333) translate(1.8271604938271606 31.77777777777778)"/><path d="M-138.33 1211.58a6 6 0 0 1 6-6h28a6 6 0 0 1 6 6v68a6 6 0 0 1-6 6h-28a6 6 0 0 1-6-6z" stroke="#3a414a" fill="#ffd9d9"/><use xlink:href="#l" transform="matrix(1,0,0,1,-126.33333333333326,1217.5833333333335) translate(1.8271604938271606 31.77777777777778)"/><path d="M-98.33 1211.58a6 6 0 0 1 6-6h28a6 6 0 0 1 6 6v68a6 6 0 0 1-6 6h-28a6 6 0 0 1-6-6z" stroke="#3a414a" fill="#ffd9d9"/><use xlink:href="#m" transform="matrix(1,0,0,1,-86.33333333333326,1217.5833333333335) translate(-4.345679012345679 32.44444444444444)"/><path d="M-58.33 1211.58a6 6 0 0 1 6-6h28a6 6 0 0 1 6 6v68a6 6 0 0 1-6 6h-28a6 6 0 0 1-6-6z" stroke="#3a414a" fill="#ffd9d9"/><use xlink:href="#n" transform="matrix(1,0,0,1,-46.33333333333326,1217.5833333333335) translate(-3.512345679012345 32.44444444444444)"/><path d="M-18.33 1211.58a6 6 0 0 1 6-6h28a6 6 0 0 1 6 6v68a6 6 0 0 1-6 6h-28a6 6 0 0 1-6-6z" stroke="#3a414a" fill="#ffd9d9"/><use xlink:href="#o" transform="matrix(1,0,0,1,-6.3333333333332575,1217.5833333333335) translate(-4.345679012345679 32.44444444444444)"/><path d="M21.67 1211.58a6 6 0 0 1 6-6h28a6 6 0 0 1 6 6v68a6 6 0 0 1-6 6h-28a6 6 0 0 1-6-6z" stroke="#3a414a" fill="#ffd9d9"/><use xlink:href="#p" transform="matrix(1,0,0,1,33.66666666666674,1217.5833333333335) translate(-4.345679012345679 32.44444444444444)"/><path d="M61.67 1211.58a6 6 0 0 1 6-6h28a6 6 0 0 1 6 6v68a6 6 0 0 1-6 6h-28a6 6 0 0 1-6-6z" stroke="#3a414a" fill="#ffd9d9"/><use xlink:href="#q" transform="matrix(1,0,0,1,73.66666666666674,1217.5833333333335) translate(-4.345679012345679 32.44444444444444)"/><path d="M101.67 1211.58a6 6 0 0 1 6-6h28a6 6 0 0 1 6 6v68a6 6 0 0 1-6 6h-28a6 6 0 0 1-6-6z" stroke="#3a414a" fill="#ffd9d9"/><use xlink:href="#r" transform="matrix(1,0,0,1,113.66666666666674,1217.5833333333335) translate(-4.345679012345679 32.44444444444444)"/><path d="M141.67 1211.58a6 6 0 0 1 6-6h28a6 6 0 0 1 6 6v68a6 6 0 0 1-6 6h-28a6 6 0 0 1-6-6z" stroke="#3a414a" fill="#ffd9d9"/><use xlink:href="#s" transform="matrix(1,0,0,1,153.66666666666674,1217.5833333333335) translate(-4.345679012345679 32.44444444444444)"/><path d="M181.67 1211.58a6 6 0 0 1 6-6h28a6 6 0 0 1 6 6v68a6 6 0 0 1-6 6h-28a6 6 0 0 1-6-6z" stroke="#3a414a" fill="#dedeff"/><use xlink:href="#t" transform="matrix(1,0,0,1,193.66666666666674,1217.583333333334) translate(-4.345679012345679 32.44444444444444)"/><path d="M221.67 1211.58a6 6 0 0 1 6-6h28a6 6 0 0 1 6 6v68a6 6 0 0 1-6 6h-28a6 6 0 0 1-6-6z" stroke="#3a414a" fill="#dedeff"/><use xlink:href="#u" transform="matrix(1,0,0,1,233.66666666666674,1217.583333333334) translate(-4.345679012345679 32.44444444444444)"/><path d="M261.67 1211.58a6 6 0 0 1 6-6h28a6 6 0 0 1 6 6v68a6 6 0 0 1-6 6h-28a6 6 0 0 1-6-6z" stroke="#3a414a" fill="#dedeff"/><use xlink:href="#v" transform="matrix(1,0,0,1,273.66666666666674,1217.583333333334) translate(-4.345679012345679 32.44444444444444)"/><path d="M301.67 1211.58a6 6 0 0 1 6-6h28a6 6 0 0 1 6 6v68a6 6 0 0 1-6 6h-28a6 6 0 0 1-6-6z" stroke="#3a414a" fill="#dedeff"/><use xlink:href="#w" transform="matrix(1,0,0,1,313.66666666666674,1217.583333333334) translate(-4.345679012345679 32.44444444444444)"/><path d="M341.67 1211.58a6 6 0 0 1 6-6h28a6 6 0 0 1 6 6v68a6 6 0 0 1-6 6h-28a6 6 0 0 1-6-6z" stroke="#3a414a" fill="#dedeff"/><use xlink:href="#x" transform="matrix(1,0,0,1,353.66666666666674,1217.5833333333335) translate(-4.345679012345679 32.44444444444444)"/><path d="M381.67 1211.58a6 6 0 0 1 6-6h28a6 6 0 0 1 6 6v68a6 6 0 0 1-6 6h-28a6 6 0 0 1-6-6z" stroke="#3a414a" fill="#dedeff"/><use xlink:href="#y" transform="matrix(1,0,0,1,393.66666666666674,1217.5833333333335) translate(-4.345679012345679 32.44444444444444)"/><path d="M421.67 1211.58a6 6 0 0 1 6-6h28a6 6 0 0 1 6 6v68a6 6 0 0 1-6 6h-28a6 6 0 0 1-6-6z" stroke="#3a414a" fill="#dedeff"/><use xlink:href="#z" transform="matrix(1,0,0,1,433.66666666666674,1217.583333333334) translate(-4.345679012345679 32.44444444444444)"/><path d="M461.67 1211.58a6 6 0 0 1 6-6h28a6 6 0 0 1 6 6v68a6 6 0 0 1-6 6h-28a6 6 0 0 1-6-6z" stroke="#3a414a" fill="#dedeff"/><use xlink:href="#A" transform="matrix(1,0,0,1,473.66666666666674,1217.583333333334) translate(-4.345679012345679 32.44444444444444)"/><path d="M501.67 1211.58a6 6 0 0 1 6-6h28a6 6 0 0 1 6 6v68a6 6 0 0 1-6 6h-28a6 6 0 0 1-6-6z" stroke="#3a414a" fill="#dedeff"/><use xlink:href="#B" transform="matrix(1,0,0,1,513.6666666666667,1217.5833333333344) translate(-4.345679012345679 32.44444444444444)"/><path d="M541.67 1211.58a6 6 0 0 1 6-6h28a6 6 0 0 1 6 6v68a6 6 0 0 1-6 6h-28a6 6 0 0 1-6-6z" stroke="#3a414a" fill="#dedeff"/><use xlink:href="#C" transform="matrix(1,0,0,1,553.666666666667,1217.5833333333344) translate(-4.345679012345679 32.44444444444444)"/><path d="M581.67 1211.58a6 6 0 0 1 6-6h28a6 6 0 0 1 6 6v68a6 6 0 0 1-6 6h-28a6 6 0 0 1-6-6z" stroke="#3a414a" fill="#dedeff"/><use xlink:href="#D" transform="matrix(1,0,0,1,593.6666666666667,1217.5833333333344) translate(-4.345679012345679 32.44444444444444)"/><path d="M621.67 1211.58a6 6 0 0 1 6-6h28a6 6 0 0 1 6 6v68a6 6 0 0 1-6 6h-28a6 6 0 0 1-6-6z" stroke="#3a414a" fill="#dedeff"/><use xlink:href="#E" transform="matrix(1,0,0,1,633.6666666666667,1217.5833333333344) translate(-4.345679012345679 32.44444444444444)"/><path d="M-342.24 846.06h-115.6v-.95h115.6zm187.52 0h-99.7v-.95h99.7z" stroke="#3a414a" stroke-width=".05" fill="#3a414a"/><path d="M-457.82 846.06h-.5v-.95h.5z" stroke="#3a414a" stroke-width=".05" fill="#3a414a"/><path d="M-139.95 845.58l-14.27 4.64v-9.27z" fill="#3a414a"/><path d="M-138.4 845.58l-16.3 5.3v-10.6zm-15.34 4l12.25-4-12.24-3.98z" stroke="#3a414a" stroke-width=".05" fill="#3a414a"/><use xlink:href="#F" transform="matrix(1,0,0,1,-342.23456790123447,834.9166666666669) translate(0 14.222222222222223)"/><use xlink:href="#G" transform="matrix(1,0,0,1,-342.23456790123447,834.9166666666669) translate(77.92592592592592 14.222222222222223)"/><path d="M-22.23 846.06h-115.6v-.95h115.6zm187.5 0h-99.7v-.95h99.7z" stroke="#3a414a" stroke-width=".05" fill="#3a414a"/><path d="M-137.82 846.06h-.5v-.95h.5z" stroke="#3a414a" stroke-width=".05" fill="#3a414a"/><path d="M180.05 845.58l-14.27 4.64v-9.27z" fill="#3a414a"/><path d="M181.6 845.58l-16.3 5.3v-10.6zm-15.34 4l12.25-4-12.24-3.98z" stroke="#3a414a" stroke-width=".05" fill="#3a414a"/><use xlink:href="#F" transform="matrix(1,0,0,1,-22.23456790123449,834.9166666666669) translate(0 14.222222222222223)"/><use xlink:href="#H" transform="matrix(1,0,0,1,-22.23456790123449,834.9166666666669) translate(77.92592592592592 14.222222222222223)"/><path d="M292.8 846.06H182.18v-.95H292.8zm352.48 0H380.6v-.95H645.3z" stroke="#3a414a" stroke-width=".05" fill="#3a414a"/><path stroke="#3a414a" stroke-width=".05" fill="#3a414a"/><path d="M660.05 845.58l-14.27 4.64v-9.27z" fill="#3a414a"/><path d="M661.6 845.58l-16.3 5.3v-10.6zm-15.34 4l12.25-4-12.24-3.98z" stroke="#3a414a" stroke-width=".05" fill="#3a414a"/><use xlink:href="#F" transform="matrix(1,0,0,1,292.808833316948,834.9166666666669) translate(0 14.222222222222223)"/><use xlink:href="#I" transform="matrix(1,0,0,1,292.808833316948,834.9166666666669) translate(77.92592592592592 14.222222222222223)"/><path d="M-137.83 806.08v719M181.17 806.08v719" stroke="#3a414a" stroke-linecap="round" fill="none"/><path d="M486 826.06H343.16v-.95H486zm159.28 0h-88.33v-.95h88.33z" stroke="#3a414a" stroke-width=".05" fill="#3a414a"/><path d="M343.18 826.06h-.5v-.95h.5z" stroke="#3a414a" stroke-width=".05" fill="#3a414a"/><path d="M660.05 825.58l-14.27 4.64v-9.27z" fill="#3a414a"/><path d="M661.6 825.58l-16.3 5.3v-10.6zm-15.34 4l12.25-4-12.24-3.98z" stroke="#3a414a" stroke-width=".05" fill="#3a414a"/><use xlink:href="#J" transform="matrix(1,0,0,1,485.9866117902341,814.9166666666669) translate(0 14.222222222222223)"/><path d="M-456.83 651.58a6 6 0 0 1 6-6h1108a6 6 0 0 1 6 6v68a6 6 0 0 1-6 6h-1108a6 6 0 0 1-6-6z" fill="none"/><path d="M-456.83 685.58h1120m-1120-40v80m1120-80v80m-960-60v40m160-40v40m160-40v40m160-40v40m160-40v40m160-40v40" stroke="#3d4752" stroke-width="2" fill="none"/><path d="M-718.33 1061.58a6 6 0 0 1 6-6h228a6 6 0 0 1 6 6v48a6 6 0 0 1-6 6h-228a6 6 0 0 1-6-6z" stroke="#000" stroke-opacity="0" fill="#fff" fill-opacity="0"/><use xlink:href="#K" transform="matrix(1,0,0,1,-713.3333333333333,1060.5833333333335) translate(42.12962962962963 30.27777777777778)"/><use xlink:href="#b" transform="matrix(1,0,0,1,-713.3333333333333,1060.5833333333335) translate(105.03086419753086 30.27777777777778)"/><path d="M-718.33 1221.58a6 6 0 0 1 6-6h228a6 6 0 0 1 6 6v48a6 6 0 0 1-6 6h-228a6 6 0 0 1-6-6z" stroke="#000" stroke-opacity="0" fill="#fff" fill-opacity="0"/><use xlink:href="#L" transform="matrix(1,0,0,1,-713.3333333333333,1220.583333333333) translate(50.154320987654316 30.27777777777778)"/><use xlink:href="#b" transform="matrix(1,0,0,1,-713.3333333333333,1220.583333333333) translate(97.00617283950618 30.27777777777778)"/><path d="M-718.33 1381.58a6 6 0 0 1 6-6h228a6 6 0 0 1 6 6v48a6 6 0 0 1-6 6h-228a6 6 0 0 1-6-6z" stroke="#000" stroke-opacity="0" fill="#fff" fill-opacity="0"/><use xlink:href="#M" transform="matrix(1,0,0,1,-713.3333333333333,1380.5833333333326) translate(39.66049382716051 30.27777777777778)"/><use xlink:href="#b" transform="matrix(1,0,0,1,-713.3333333333333,1380.5833333333326) translate(107.5 30.27777777777778)"/><g fill="none"><path d="M-41.33 561.5v977"/><path d="M-41.33 561.5v3.02m0 12.06v6.03m0 12.07v6.03m0 12.06v6.03m0 12.06v6.03m0 12.05v6.03m0 12.06v6.03m0 12.06v6.03m0 12.07v6.03m0 12.06v6.03m0 12.06v6.04m0 12.06v6.03m0 12.07v6.03m0 12.06v6.02m0 12.06v6.03m0 12.07v6.03m0 12.07V854m0 12.06v6.03m0 12.05v6.03m0 12.06v6.03m0 12.07v6.03m0 12.06v6.03m0 12.06v6.03m0 12.06v6.05m0 12.06v6.04m0 12.06v6.03m0 12.06v6.02m0 12.06v6.04m0 12.06v6.03m0 12.07v6.03m0 12.06v6.03m0 12.06v6.03m0 12.05v6.03m0 12.06v6.03m0 12.06v6.03m0 12.07v6.03m0 12.06v6.03m0 12.06v6.04m0 12.06v6.03m0 12.07v6.03m0 12.06v6.02m0 12.06v6.03m0 12.07v6.03m0 12.07v6.03m0 12.06v6.03m0 12.05v6.03m0 12.06v6.03m0 12.07v6.03m0 12.06v6.03m0 12.06v6.03m0 12.06v6.05m0 12.06v6.04m0 12.06v6.03m0 12.06v6.02m0 12.06v3.02" stroke="#3a414a" stroke-width="3" stroke-linecap="round"/></g><path d="M-178.33 491.58a6 6 0 0 1 6-6h228a6 6 0 0 1 6 6v48a6 6 0 0 1-6 6h-228a6 6 0 0 1-6-6z" stroke="#000" stroke-opacity="0" fill="#fff" fill-opacity="0"/><use xlink:href="#N" transform="matrix(1,0,0,1,-173.33333333333326,490.5833333333335) translate(50.77160493827161 30.27777777777778)"/><use xlink:href="#O" transform="matrix(1,0,0,1,-173.33333333333326,490.5833333333335) translate(130.83333333333331 30.27777777777778)"/><path d="M741.67 871.58a6 6 0 0 1 6-6h868a6 6 0 0 1 6 6v108a6 6 0 0 1-6 6h-868a6 6 0 0 1-6-6z" fill="#fff"/><path d="M762.74 865.58h6.02m12.06 0h6.03m12.05 0h6.03m12.06 0h6m12.07 0h6.03m12.05 0h6.03m12.06 0h6.02m12.06 0h6.03m12.05 0h6.03m12.06 0h6m12.07 0h6.03m12.05 0h6.03m12.06 0h6.02m12.06 0h6.03m12.05 0h6.03m12.06 0h6m12.07 0h6.03m12.05 0h6.03m12.06 0h6.02m12.06 0h6.03m12.05 0h6.03m12.06 0h6m12.07 0h6.03m12.05 0h6.03m12.06 0h6.02m12.06 0h6.03m12.05 0h6.03m12.06 0h6m12.07 0h6.03m12.05 0h6.03m12.06 0h6.02m12.06 0h6.03m12.05 0h6.03m12.06 0h6m12.07 0h6.03m12.05 0h6.03m12.06 0h6.02m12.06 0h6.03m12.05 0h6.03m12.06 0h6m12.07 0h6.03m12.05 0h6.03m12.06 0h6.02m12.06 0h6.03m12.05 0h6.03m12.06 0h6m12.07 0h6.03m12.05 0h3.02l.93.08.92.22.87.36.8.5.7.6.62.72.5.8.35.87.22.9.07.95v3m0 12v6m0 12v6m0 12v6m0 12v6m0 12v6m0 12v3l-.08.94-.23.92-.36.87-.48.8-.6.73-.73.6-.8.5-.88.36-.9.2-.95.08h-3.02m-12.05 0h-6.03m-12.06 0h-6m-12.07 0h-6.03m-12.05 0h-6.03m-12.06 0h-6.02m-12.06 0h-6.03m-12.05 0h-6.03m-12.06 0h-6m-12.07 0h-6.03m-12.05 0h-6.03m-12.06 0h-6.02m-12.06 0h-6.03m-12.05 0h-6.03m-12.06 0h-6m-12.07 0h-6.03m-12.05 0h-6.03m-12.06 0h-6.02m-12.06 0h-6.03m-12.05 0h-6.03m-12.06 0h-6m-12.07 0h-6.03m-12.05 0h-6.03m-12.06 0h-6.02m-12.06 0h-6.03m-12.05 0h-6.03m-12.06 0h-6m-12.07 0h-6.03m-12.05 0h-6.03m-12.06 0h-6.02m-12.06 0h-6.03m-12.05 0h-6.03m-12.06 0h-6m-12.07 0h-6.03m-12.05 0h-6.03m-12.06 0h-6.02m-12.06 0h-6.03m-12.05 0h-6.03m-12.06 0h-6m-12.07 0h-6.03m-12.05 0h-6.03m-12.06 0h-6.02m-12.06 0h-6.03m-12.05 0h-6.03m-12.06 0h-6m-12.07 0h-6.03m-12.05 0h-6.03m-12.06 0h-6.02m-12.06 0h-3l-.95-.07-.92-.2-.86-.37-.8-.5-.72-.6-.6-.72-.5-.8-.36-.86-.22-.92-.07-.94v-3m0-12v-6m0-12v-6m0-12v-6m0-12v-6m0-12v-6m0-12v-3l.07-.94.22-.9.36-.88.5-.8.6-.72.72-.6.8-.5.87-.36.93-.22.94-.08h3" stroke="#3a414a" stroke-width="3" fill="none"/><path d="M781.67 891.58a6 6 0 0 1 6-6h148a6 6 0 0 1 6 6v68a6 6 0 0 1-6 6h-148a6 6 0 0 1-6-6z" stroke="#3a414a" fill="#fff3d9"/><use xlink:href="#e" transform="matrix(1,0,0,1,793.6666666666667,897.5833333333335) translate(61.82716049382716 31.77777777777778)"/><path d="M941.67 891.58a6 6 0 0 1 6-6h148a6 6 0 0 1 6 6v68a6 6 0 0 1-6 6h-148a6 6 0 0 1-6-6z" stroke="#3a414a" fill="#ffd9d9"/><use xlink:href="#f" transform="matrix(1,0,0,1,953.6666666666667,897.5833333333335) translate(61.82716049382716 31.77777777777778)"/><path d="M741.67 791.58a6 6 0 0 1 6-6h228a6 6 0 0 1 6 6v48a6 6 0 0 1-6 6h-228a6 6 0 0 1-6-6z" stroke="#000" stroke-opacity="0" fill="#fff" fill-opacity="0"/><use xlink:href="#P" transform="matrix(1,0,0,1,746.6666666666667,790.5833333333335) translate(73.2716049382716 30.27777777777778)"/><path d="M741.67 1031.58a6 6 0 0 1 6-6h868a6 6 0 0 1 6 6v108a6 6 0 0 1-6 6h-868a6 6 0 0 1-6-6z" fill="#fff"/><path d="M762.74 1025.58h6.02m12.06 0h6.03m12.05 0h6.03m12.06 0h6m12.07 0h6.03m12.05 0h6.03m12.06 0h6.02m12.06 0h6.03m12.05 0h6.03m12.06 0h6m12.07 0h6.03m12.05 0h6.03m12.06 0h6.02m12.06 0h6.03m12.05 0h6.03m12.06 0h6m12.07 0h6.03m12.05 0h6.03m12.06 0h6.02m12.06 0h6.03m12.05 0h6.03m12.06 0h6m12.07 0h6.03m12.05 0h6.03m12.06 0h6.02m12.06 0h6.03m12.05 0h6.03m12.06 0h6m12.07 0h6.03m12.05 0h6.03m12.06 0h6.02m12.06 0h6.03m12.05 0h6.03m12.06 0h6m12.07 0h6.03m12.05 0h6.03m12.06 0h6.02m12.06 0h6.03m12.05 0h6.03m12.06 0h6m12.07 0h6.03m12.05 0h6.03m12.06 0h6.02m12.06 0h6.03m12.05 0h6.03m12.06 0h6m12.07 0h6.03m12.05 0h3.02l.93.08.92.22.87.36.8.5.7.6.62.72.5.8.35.87.22.9.07.95v3m0 12v6m0 12v6m0 12v6m0 12v6m0 12v6m0 12v3l-.08.94-.23.92-.36.87-.48.8-.6.73-.73.6-.8.5-.88.36-.9.2-.95.08h-3.02m-12.05 0h-6.03m-12.06 0h-6m-12.07 0h-6.03m-12.05 0h-6.03m-12.06 0h-6.02m-12.06 0h-6.03m-12.05 0h-6.03m-12.06 0h-6m-12.07 0h-6.03m-12.05 0h-6.03m-12.06 0h-6.02m-12.06 0h-6.03m-12.05 0h-6.03m-12.06 0h-6m-12.07 0h-6.03m-12.05 0h-6.03m-12.06 0h-6.02m-12.06 0h-6.03m-12.05 0h-6.03m-12.06 0h-6m-12.07 0h-6.03m-12.05 0h-6.03m-12.06 0h-6.02m-12.06 0h-6.03m-12.05 0h-6.03m-12.06 0h-6m-12.07 0h-6.03m-12.05 0h-6.03m-12.06 0h-6.02m-12.06 0h-6.03m-12.05 0h-6.03m-12.06 0h-6m-12.07 0h-6.03m-12.05 0h-6.03m-12.06 0h-6.02m-12.06 0h-6.03m-12.05 0h-6.03m-12.06 0h-6m-12.07 0h-6.03m-12.05 0h-6.03m-12.06 0h-6.02m-12.06 0h-6.03m-12.05 0h-6.03m-12.06 0h-6m-12.07 0h-6.03m-12.05 0h-6.03m-12.06 0h-6.02m-12.06 0h-3l-.95-.07-.92-.2-.86-.37-.8-.5-.72-.6-.6-.72-.5-.8-.36-.86-.22-.92-.07-.94v-3m0-12v-6m0-12v-6m0-12v-6m0-12v-6m0-12v-6m0-12v-3l.07-.93.22-.92.36-.87.5-.8.6-.72.72-.6.8-.5.87-.36.93-.22.94-.08h3" stroke="#3a414a" stroke-width="3" fill="none"/><path d="M741.67 1191.58a6 6 0 0 1 6-6h868a6 6 0 0 1 6 6v108a6 6 0 0 1-6 6h-868a6 6 0 0 1-6-6z" fill="#fff"/><path d="M762.74 1185.58h6.02m12.06 0h6.03m12.05 0h6.03m12.06 0h6m12.07 0h6.03m12.05 0h6.03m12.06 0h6.02m12.06 0h6.03m12.05 0h6.03m12.06 0h6m12.07 0h6.03m12.05 0h6.03m12.06 0h6.02m12.06 0h6.03m12.05 0h6.03m12.06 0h6m12.07 0h6.03m12.05 0h6.03m12.06 0h6.02m12.06 0h6.03m12.05 0h6.03m12.06 0h6m12.07 0h6.03m12.05 0h6.03m12.06 0h6.02m12.06 0h6.03m12.05 0h6.03m12.06 0h6m12.07 0h6.03m12.05 0h6.03m12.06 0h6.02m12.06 0h6.03m12.05 0h6.03m12.06 0h6m12.07 0h6.03m12.05 0h6.03m12.06 0h6.02m12.06 0h6.03m12.05 0h6.03m12.06 0h6m12.07 0h6.03m12.05 0h6.03m12.06 0h6.02m12.06 0h6.03m12.05 0h6.03m12.06 0h6m12.07 0h6.03m12.05 0h3.02l.93.08.92.22.87.36.8.5.7.6.62.72.5.8.35.87.22.9.07.95v3m0 12v6m0 12v6m0 12v6m0 12v6m0 12v6m0 12v3l-.08.94-.23.92-.36.87-.48.8-.6.73-.73.6-.8.5-.88.36-.9.2-.95.08h-3.02m-12.05 0h-6.03m-12.06 0h-6m-12.07 0h-6.03m-12.05 0h-6.03m-12.06 0h-6.02m-12.06 0h-6.03m-12.05 0h-6.03m-12.06 0h-6m-12.07 0h-6.03m-12.05 0h-6.03m-12.06 0h-6.02m-12.06 0h-6.03m-12.05 0h-6.03m-12.06 0h-6m-12.07 0h-6.03m-12.05 0h-6.03m-12.06 0h-6.02m-12.06 0h-6.03m-12.05 0h-6.03m-12.06 0h-6m-12.07 0h-6.03m-12.05 0h-6.03m-12.06 0h-6.02m-12.06 0h-6.03m-12.05 0h-6.03m-12.06 0h-6m-12.07 0h-6.03m-12.05 0h-6.03m-12.06 0h-6.02m-12.06 0h-6.03m-12.05 0h-6.03m-12.06 0h-6m-12.07 0h-6.03m-12.05 0h-6.03m-12.06 0h-6.02m-12.06 0h-6.03m-12.05 0h-6.03m-12.06 0h-6m-12.07 0h-6.03m-12.05 0h-6.03m-12.06 0h-6.02m-12.06 0h-6.03m-12.05 0h-6.03m-12.06 0h-6m-12.07 0h-6.03m-12.05 0h-6.03m-12.06 0h-6.02m-12.06 0h-3l-.95-.07-.92-.2-.86-.37-.8-.5-.72-.6-.6-.72-.5-.8-.36-.86-.22-.92-.07-.94v-3m0-12v-6m0-12v-6m0-12v-6m0-12v-6m0-12v-6m0-12v-3l.07-.93.22-.92.36-.87.5-.8.6-.72.72-.6.8-.5.87-.36.93-.22.94-.08h3" stroke="#3a414a" stroke-width="3" fill="none"/><path d="M741.67 1346.58a6 6 0 0 1 6-6h868a6 6 0 0 1 6 6v108a6 6 0 0 1-6 6h-868a6 6 0 0 1-6-6z" fill="#fff"/><path d="M762.74 1340.58h6.02m12.06 0h6.03m12.05 0h6.03m12.06 0h6m12.07 0h6.03m12.05 0h6.03m12.06 0h6.02m12.06 0h6.03m12.05 0h6.03m12.06 0h6m12.07 0h6.03m12.05 0h6.03m12.06 0h6.02m12.06 0h6.03m12.05 0h6.03m12.06 0h6m12.07 0h6.03m12.05 0h6.03m12.06 0h6.02m12.06 0h6.03m12.05 0h6.03m12.06 0h6m12.07 0h6.03m12.05 0h6.03m12.06 0h6.02m12.06 0h6.03m12.05 0h6.03m12.06 0h6m12.07 0h6.03m12.05 0h6.03m12.06 0h6.02m12.06 0h6.03m12.05 0h6.03m12.06 0h6m12.07 0h6.03m12.05 0h6.03m12.06 0h6.02m12.06 0h6.03m12.05 0h6.03m12.06 0h6m12.07 0h6.03m12.05 0h6.03m12.06 0h6.02m12.06 0h6.03m12.05 0h6.03m12.06 0h6m12.07 0h6.03m12.05 0h3.02l.93.08.92.22.87.36.8.5.7.6.62.72.5.8.35.87.22.9.07.95v3m0 12v6m0 12v6m0 12v6m0 12v6m0 12v6m0 12v3l-.08.94-.23.92-.36.87-.48.8-.6.73-.73.6-.8.5-.88.36-.9.2-.95.08h-3.02m-12.05 0h-6.03m-12.06 0h-6m-12.07 0h-6.03m-12.05 0h-6.03m-12.06 0h-6.02m-12.06 0h-6.03m-12.05 0h-6.03m-12.06 0h-6m-12.07 0h-6.03m-12.05 0h-6.03m-12.06 0h-6.02m-12.06 0h-6.03m-12.05 0h-6.03m-12.06 0h-6m-12.07 0h-6.03m-12.05 0h-6.03m-12.06 0h-6.02m-12.06 0h-6.03m-12.05 0h-6.03m-12.06 0h-6m-12.07 0h-6.03m-12.05 0h-6.03m-12.06 0h-6.02m-12.06 0h-6.03m-12.05 0h-6.03m-12.06 0h-6m-12.07 0h-6.03m-12.05 0h-6.03m-12.06 0h-6.02m-12.06 0h-6.03m-12.05 0h-6.03m-12.06 0h-6m-12.07 0h-6.03m-12.05 0h-6.03m-12.06 0h-6.02m-12.06 0h-6.03m-12.05 0h-6.03m-12.06 0h-6m-12.07 0h-6.03m-12.05 0h-6.03m-12.06 0h-6.02m-12.06 0h-6.03m-12.05 0h-6.03m-12.06 0h-6m-12.07 0h-6.03m-12.05 0h-6.03m-12.06 0h-6.02m-12.06 0h-3l-.95-.07-.92-.2-.86-.37-.8-.5-.72-.6-.6-.72-.5-.8-.36-.86-.22-.92-.07-.94v-3m0-12v-6m0-12v-6m0-12v-6m0-12v-6m0-12v-6m0-12v-3l.07-.93.22-.92.36-.87.5-.8.6-.72.72-.6.8-.5.87-.36.93-.22.94-.08h3" stroke="#3a414a" stroke-width="3" fill="none"/><path d="M781.67 1051.58a6 6 0 0 1 6-6h68a6 6 0 0 1 6 6v68a6 6 0 0 1-6 6h-68a6 6 0 0 1-6-6z" stroke="#3a414a" fill="#fff3d9"/><use xlink:href="#f" transform="matrix(1,0,0,1,793.6666666666667,1057.5833333333335) translate(21.82716049382716 31.77777777777778)"/><path d="M861.67 1051.58a6 6 0 0 1 6-6h68a6 6 0 0 1 6 6v68a6 6 0 0 1-6 6h-68a6 6 0 0 1-6-6z" stroke="#3a414a" fill="#fff3d9"/><use xlink:href="#g" transform="matrix(1,0,0,1,873.6666666666667,1057.5833333333335) translate(21.82716049382716 31.77777777777778)"/><path d="M941.67 1051.58a6 6 0 0 1 6-6h68a6 6 0 0 1 6 6v68a6 6 0 0 1-6 6h-68a6 6 0 0 1-6-6z" stroke="#3a414a" fill="#ffd9d9"/><use xlink:href="#h" transform="matrix(1,0,0,1,953.6666666666667,1057.5833333333335) translate(21.82716049382716 31.77777777777778)"/><path d="M781.67 1211.58a6 6 0 0 1 6-6h28a6 6 0 0 1 6 6v68a6 6 0 0 1-6 6h-28a6 6 0 0 1-6-6z" stroke="#3a414a" fill="#fff3d9"/><use xlink:href="#h" transform="matrix(1,0,0,1,793.6666666666667,1217.5833333333344) translate(1.8271604938271606 31.77777777777778)"/><path d="M821.67 1211.58a6 6 0 0 1 6-6h28a6 6 0 0 1 6 6v68a6 6 0 0 1-6 6h-28a6 6 0 0 1-6-6z" stroke="#3a414a" fill="#fff3d9"/><use xlink:href="#i" transform="matrix(1,0,0,1,833.6666666666667,1217.5833333333344) translate(1.8271604938271606 31.77777777777778)"/><path d="M861.67 1211.58a6 6 0 0 1 6-6h28a6 6 0 0 1 6 6v68a6 6 0 0 1-6 6h-28a6 6 0 0 1-6-6z" stroke="#3a414a" fill="#fff3d9"/><use xlink:href="#j" transform="matrix(1,0,0,1,873.6666666666667,1217.5833333333344) translate(1.8271604938271606 31.77777777777778)"/><path d="M901.67 1211.58a6 6 0 0 1 6-6h28a6 6 0 0 1 6 6v68a6 6 0 0 1-6 6h-28a6 6 0 0 1-6-6z" stroke="#3a414a" fill="#fff3d9"/><use xlink:href="#k" transform="matrix(1,0,0,1,913.6666666666667,1217.5833333333344) translate(1.8271604938271606 31.77777777777778)"/><path d="M941.67 1211.58a6 6 0 0 1 6-6h28a6 6 0 0 1 6 6v68a6 6 0 0 1-6 6h-28a6 6 0 0 1-6-6z" stroke="#3a414a" fill="#ffd9d9"/><use xlink:href="#l" transform="matrix(1,0,0,1,953.6666666666667,1217.5833333333348) translate(1.8271604938271606 31.77777777777778)"/><path d="M981.67 1211.58a6 6 0 0 1 6-6h28a6 6 0 0 1 6 6v68a6 6 0 0 1-6 6h-28a6 6 0 0 1-6-6z" stroke="#3a414a" fill="#ffd9d9"/><use xlink:href="#m" transform="matrix(1,0,0,1,993.6666666666667,1217.5833333333348) translate(-4.345679012345679 32.44444444444444)"/><path d="M1021.67 1211.58a6 6 0 0 1 6-6h28a6 6 0 0 1 6 6v68a6 6 0 0 1-6 6h-28a6 6 0 0 1-6-6z" stroke="#3a414a" fill="#ffd9d9"/><use xlink:href="#n" transform="matrix(1,0,0,1,1033.6666666666667,1217.5833333333348) translate(-3.512345679012345 32.44444444444444)"/><path d="M771.67 1368.27a6 6 0 0 1 6-6h308.5a6 6 0 0 1 6 6v68a6 6 0 0 1-6 6h-308.5a6 6 0 0 1-6-6z" stroke="#3a414a" fill="#fff3d9"/><use xlink:href="#d" transform="matrix(1,0,0,1,783.6666666666667,1374.2715430787534) translate(142.32716049382717 31.77777777777778)"/><path d="M1092.17 1368.27a6 6 0 0 1 6-6h308.5a6 6 0 0 1 6 6v68a6 6 0 0 1-6 6h-308.5a6 6 0 0 1-6-6z" stroke="#3a414a" fill="#ffd9d9"/><use xlink:href="#e" transform="matrix(1,0,0,1,1104.1666666666667,1374.2715430787534) translate(142.32716049382717 31.77777777777778)"/><g fill="none"><path d="M-359.5 561v978.5"/><path d="M-359.5 561v10.13m0 10.13v2.02m0 10.13v20.27m0 10.13v2.03m0 10.13v20.26m0 10.13v2.02m0 10.13v20.26m0 10.13v2m0 10.14v20.26m0 10.13v2.03m0 10.13v20.25m0 10.13V796m0 10.13v20.26m0 10.12v2.03m0 10.13v20.25m0 10.13v2.03m0 10.12v20.26m0 10.13v2.03m0 10.13v20.26m0 10.13v2.03m0 10.13v20.26m0 10.13v2.02m0 10.13v20.26m0 10.14v2.02m0 10.13v20.25m0 10.13v2.03m0 10.14v20.26m0 10.12v2.03m0 10.13v20.26m0 10.13v2.02m0 10.12v20.26m0 10.13v2.04m0 10.13v20.26m0 10.12v2.03m0 10.13v20.27m0 10.13v2.02m0 10.13v20.26m0 10.14v2.03m0 10.13v20.26m0 10.13v2m0 10.14V1422m0 10.13v2.02m0 10.13v20.26m0 10.13v2.03m0 10.13v20.26m0 10.12v2.02m0 10.13v10.13" stroke="#3a414a" stroke-width="2" stroke-linecap="round"/></g><g fill="none"><path d="M279.67 561v978.5"/><path d="M279.67 561v10.13m0 10.13v2.02m0 10.13v20.27m0 10.13v2.03m0 10.13v20.26m0 10.13v2.02m0 10.13v20.26m0 10.13v2.02m0 10.12v20.26m0 10.13v2.03m0 10.13v20.25m0 10.13V796m0 10.13v20.26m0 10.12v2.03m0 10.13v20.25m0 10.13v2.03m0 10.12v20.26m0 10.13v2.03m0 10.13v20.26m0 10.13v2.03m0 10.13v20.26m0 10.13v2.02m0 10.13v20.26m0 10.14v2.02m0 10.13v20.25m0 10.13v2.03m0 10.14v20.25m0 10.12v2.03m0 10.13v20.26m0 10.13v2.02m0 10.12v20.26m0 10.13v2.04m0 10.13v20.26m0 10.12v2.03m0 10.13v20.27m0 10.13v2.02m0 10.13v20.26m0 10.14v2.03m0 10.13v20.26m0 10.13v2m0 10.14V1422m0 10.13v2.02m0 10.13v20.26m0 10.13v2.03m0 10.13v20.26m0 10.12v2.02m0 10.13v10.13" stroke="#3a414a" stroke-width="2" stroke-linecap="round"/></g><path d="M-257.5 599.48h-86.12v-.96h86.1zm198.28 0h-86.1v-.96h86.1zM-257.5 601.48h-86.12v-.96h86.1zm198.28 0h-86.1v-.96h86.1z" stroke="#3a414a" stroke-width=".05" fill="#3a414a"/><path d="M-344.12 604.63l-14.26-4.63 14.26-4.63z" fill="#3a414a"/><path d="M-343.64 605.3l-16.28-5.3 16.28-5.3zm-13.2-5.3l12.25 3.98v-7.96z" stroke="#3a414a" stroke-width=".05" fill="#3a414a"/><path d="M-44.45 600l-14.27 4.63v-9.26z" fill="#3a414a"/><path d="M-42.9 600l-16.3 5.3v-10.6zm-15.34 3.98L-46 600l-12.24-3.98z" stroke="#3a414a" stroke-width=".05" fill="#3a414a"/><use xlink:href="#Q" transform="matrix(1,0,0,1,-257.5154320987655,589.3333333333334) translate(0 14.222222222222223)"/><path d="M66.26 599.48h-89.7v-.96h89.7zm196.02 0h-89.7v-.96h89.7zM66.26 601.48h-89.7v-.96h89.7zm196.02 0h-89.7v-.96h89.7z" stroke="#3a414a" stroke-width=".05" fill="#3a414a"/><path d="M-23.95 604.63L-38.22 600l14.27-4.63z" fill="#3a414a"/><path d="M-23.47 605.3l-16.28-5.3 16.28-5.3zm-13.2-5.3l12.25 3.98v-7.96z" stroke="#3a414a" stroke-width=".05" fill="#3a414a"/><path d="M277.05 600l-14.27 4.63v-9.26z" fill="#3a414a"/><path d="M278.6 600l-16.3 5.3v-10.6zm-15.34 3.98L275.5 600l-12.24-3.98z" stroke="#3a414a" stroke-width=".05" fill="#3a414a"/><use xlink:href="#R" transform="matrix(1,0,0,1,66.25617283950602,589.3333333333333) translate(0 14.222222222222223)"/><path d="M1021.67 1051.58a6 6 0 0 1 6-6h68a6 6 0 0 1 6 6v68a6 6 0 0 1-6 6h-68a6 6 0 0 1-6-6z" stroke="#3a414a" fill="#ffd9d9"/><g><use xlink:href="#i" transform="matrix(1,0,0,1,1033.6666666666667,1057.5833333333335) translate(21.82716049382716 31.77777777777778)"/></g><path d="M1061.67 1211.58a6 6 0 0 1 6-6h28a6 6 0 0 1 6 6v68a6 6 0 0 1-6 6h-28a6 6 0 0 1-6-6z" stroke="#3a414a" fill="#ffd9d9"/><g><use xlink:href="#o" transform="matrix(1,0,0,1,1073.6666666666667,1217.583333333333) translate(-4.345679012345679 32.44444444444444)"/></g><path d="M1101.67 1211.58a6 6 0 0 1 6-6h28a6 6 0 0 1 6 6v68a6 6 0 0 1-6 6h-28a6 6 0 0 1-6-6z" stroke="#3a414a" fill="#ffd9d9"/><g><use xlink:href="#p" transform="matrix(1,0,0,1,1113.6666666666667,1217.5833333333348) translate(-4.345679012345679 32.44444444444444)"/></g><path d="M1101.67 1051.58a6 6 0 0 1 6-6h68a6 6 0 0 1 6 6v68a6 6 0 0 1-6 6h-68a6 6 0 0 1-6-6z" stroke="#3a414a" fill="#ffd9d9"/><g><use xlink:href="#j" transform="matrix(1,0,0,1,1113.6666666666667,1057.5833333333335) translate(21.82716049382716 31.77777777777778)"/></g><defs><path fill="#3a414a" d="M30-248c87 1 191-15 191 75 0 78-77 80-158 76V0H30v-248zm33 125c57 0 124 11 124-50 0-59-68-47-124-48v98" id="S"/><path fill="#3a414a" d="M24 0v-261h32V0H24" id="T"/><path fill="#3a414a" d="M141-36C126-15 110 5 73 4 37 3 15-17 15-53c-1-64 63-63 125-63 3-35-9-54-41-54-24 1-41 7-42 31l-33-3c5-37 33-52 76-52 45 0 72 20 72 64v82c-1 20 7 32 28 27v20c-31 9-61-2-59-35zM48-53c0 20 12 33 32 33 41-3 63-29 60-74-43 2-92-5-92 41" id="U"/><path fill="#3a414a" d="M179-190L93 31C79 59 56 82 12 73V49c39 6 53-20 64-50L1-190h34L92-34l54-156h33" id="V"/><path fill="#3a414a" d="M100-194c63 0 86 42 84 106H49c0 40 14 67 53 68 26 1 43-12 49-29l28 8c-11 28-37 45-77 45C44 4 14-33 15-96c1-61 26-98 85-98zm52 81c6-60-76-77-97-28-3 7-6 17-6 28h103" id="W"/><path fill="#3a414a" d="M114-163C36-179 61-72 57 0H25l-1-190h30c1 12-1 29 2 39 6-27 23-49 58-41v29" id="X"/><g id="a"><use transform="matrix(0.06172839506172839,0,0,0.06172839506172839,0,0)" xlink:href="#S"/><use transform="matrix(0.06172839506172839,0,0,0.06172839506172839,14.814814814814813,0)" xlink:href="#T"/><use transform="matrix(0.06172839506172839,0,0,0.06172839506172839,19.691358024691354,0)" xlink:href="#U"/><use transform="matrix(0.06172839506172839,0,0,0.06172839506172839,32.03703703703703,0)" xlink:href="#V"/><use transform="matrix(0.06172839506172839,0,0,0.06172839506172839,43.14814814814814,0)" xlink:href="#W"/><use transform="matrix(0.06172839506172839,0,0,0.06172839506172839,55.493827160493815,0)" xlink:href="#X"/></g><path fill="#3a414a" d="M127-220V0H93v-220H8v-28h204v28h-85" id="Y"/><path fill="#3a414a" d="M24-231v-30h32v30H24zM24 0v-190h32V0H24" id="Z"/><path fill="#3a414a" d="M210-169c-67 3-38 105-44 169h-31v-121c0-29-5-50-35-48C34-165 62-65 56 0H25l-1-190h30c1 10-1 24 2 32 10-44 99-50 107 0 11-21 27-35 58-36 85-2 47 119 55 194h-31v-121c0-29-5-49-35-48" id="aa"/><path fill="#3a414a" d="M117-194c89-4 53 116 60 194h-32v-121c0-31-8-49-39-48C34-167 62-67 57 0H25l-1-190h30c1 10-1 24 2 32 11-22 29-35 61-36" id="ab"/><g id="b"><use transform="matrix(0.06172839506172839,0,0,0.06172839506172839,0,0)" xlink:href="#Y"/><use transform="matrix(0.06172839506172839,0,0,0.06172839506172839,12.716049382716047,0)" xlink:href="#Z"/><use transform="matrix(0.06172839506172839,0,0,0.06172839506172839,17.592592592592588,0)" xlink:href="#aa"/><use transform="matrix(0.06172839506172839,0,0,0.06172839506172839,36.04938271604938,0)" xlink:href="#W"/><use transform="matrix(0.06172839506172839,0,0,0.06172839506172839,48.395061728395056,0)" xlink:href="#T"/><use transform="matrix(0.06172839506172839,0,0,0.06172839506172839,53.2716049382716,0)" xlink:href="#Z"/><use transform="matrix(0.06172839506172839,0,0,0.06172839506172839,58.148148148148145,0)" xlink:href="#ab"/><use transform="matrix(0.06172839506172839,0,0,0.06172839506172839,70.49382716049382,0)" xlink:href="#W"/></g><path fill="#3a414a" d="M240 0l2-218c-23 76-54 145-80 218h-23L58-218 59 0H30v-248h44l77 211c21-75 51-140 76-211h43V0h-30" id="ac"/><g id="c"><use transform="matrix(0.06172839506172839,0,0,0.06172839506172839,0,0)" xlink:href="#ac"/><use transform="matrix(0.06172839506172839,0,0,0.06172839506172839,18.456790123456788,0)" xlink:href="#U"/><use transform="matrix(0.06172839506172839,0,0,0.06172839506172839,30.80246913580247,0)" xlink:href="#Z"/><use transform="matrix(0.06172839506172839,0,0,0.06172839506172839,35.67901234567901,0)" xlink:href="#ab"/></g><path fill="#3a414a" d="M27 0v-27h64v-190l-56 39v-29l58-41h29v221h61V0H27" id="ad"/><use transform="matrix(0.06172839506172839,0,0,0.06172839506172839,0,0)" xlink:href="#ad" id="d"/><path fill="#3a414a" d="M101-251c82-7 93 87 43 132L82-64C71-53 59-42 53-27h129V0H18c2-99 128-94 128-182 0-28-16-43-45-43s-46 15-49 41l-32-3c6-41 34-60 81-64" id="ae"/><use transform="matrix(0.06172839506172839,0,0,0.06172839506172839,0,0)" xlink:href="#ae" id="e"/><path fill="#3a414a" d="M126-127c33 6 58 20 58 59 0 88-139 92-164 29-3-8-5-16-6-25l32-3c6 27 21 44 54 44 32 0 52-15 52-46 0-38-36-46-79-43v-28c39 1 72-4 72-42 0-27-17-43-46-43-28 0-47 15-49 41l-32-3c6-42 35-63 81-64 48-1 79 21 79 65 0 36-21 52-52 59" id="af"/><use transform="matrix(0.06172839506172839,0,0,0.06172839506172839,0,0)" xlink:href="#af" id="f"/><path fill="#3a414a" d="M155-56V0h-30v-56H8v-25l114-167h33v167h35v25h-35zm-30-156c-27 46-58 90-88 131h88v-131" id="ag"/><use transform="matrix(0.06172839506172839,0,0,0.06172839506172839,0,0)" xlink:href="#ag" id="g"/><path fill="#3a414a" d="M54-142c48-35 137-8 131 61C196 18 31 33 14-55l32-4c7 23 22 37 52 37 35-1 51-22 54-58 4-55-73-65-99-34H22l8-134h141v27H59" id="ah"/><use transform="matrix(0.06172839506172839,0,0,0.06172839506172839,0,0)" xlink:href="#ah" id="h"/><path fill="#3a414a" d="M110-160c48 1 74 30 74 79 0 53-28 85-80 85-65 0-83-55-86-122-5-90 50-162 133-122 14 7 22 21 27 39l-31 6c-5-40-67-38-82-6-9 19-15 44-15 74 11-20 30-34 60-33zm-7 138c34 0 49-23 49-58s-16-56-50-56c-29 0-50 16-49 49 1 36 15 65 50 65" id="ai"/><use transform="matrix(0.06172839506172839,0,0,0.06172839506172839,0,0)" xlink:href="#ai" id="i"/><path fill="#3a414a" d="M64 0c3-98 48-159 88-221H18v-27h164v26C143-157 98-101 97 0H64" id="aj"/><use transform="matrix(0.06172839506172839,0,0,0.06172839506172839,0,0)" xlink:href="#aj" id="j"/><path fill="#3a414a" d="M134-131c28 9 52 24 51 62-1 50-34 73-85 73S17-19 16-69c0-36 21-54 49-61-75-25-45-126 34-121 46 3 78 18 79 63 0 33-17 51-44 57zm-34-11c31 1 46-15 46-44 0-28-17-43-47-42-29 0-46 13-45 42 1 28 16 44 46 44zm1 122c35 0 51-18 51-52 0-30-18-46-53-46-33 0-51 17-51 47 0 34 19 51 53 51" id="ak"/><use transform="matrix(0.06172839506172839,0,0,0.06172839506172839,0,0)" xlink:href="#ak" id="k"/><path fill="#3a414a" d="M99-251c64 0 84 50 84 122C183-37 130 33 47-8c-14-7-20-23-25-40l30-5c6 39 69 39 84 7 9-19 16-44 16-74-10 22-31 35-62 35-49 0-73-33-73-83 0-54 28-83 82-83zm-1 141c31-1 51-18 51-49 0-36-14-67-51-67-34 0-49 23-49 58 0 34 15 58 49 58" id="al"/><use transform="matrix(0.06172839506172839,0,0,0.06172839506172839,0,0)" xlink:href="#al" id="l"/><path fill="#3a414a" d="M101-251c68 0 85 55 85 127S166 4 100 4C33 4 14-52 14-124c0-73 17-127 87-127zm-1 229c47 0 54-49 54-102s-4-102-53-102c-51 0-55 48-55 102 0 53 5 102 54 102" id="am"/><g id="m"><use transform="matrix(0.06172839506172839,0,0,0.06172839506172839,0,0)" xlink:href="#ad"/><use transform="matrix(0.06172839506172839,0,0,0.06172839506172839,12.345679012345679,0)" xlink:href="#am"/></g><g id="n"><use transform="matrix(0.06172839506172839,0,0,0.06172839506172839,0,0)" xlink:href="#ad"/><use transform="matrix(0.06172839506172839,0,0,0.06172839506172839,10.679012345679013,0)" xlink:href="#ad"/></g><g id="o"><use transform="matrix(0.06172839506172839,0,0,0.06172839506172839,0,0)" xlink:href="#ad"/><use transform="matrix(0.06172839506172839,0,0,0.06172839506172839,12.345679012345679,0)" xlink:href="#ae"/></g><g id="p"><use transform="matrix(0.06172839506172839,0,0,0.06172839506172839,0,0)" xlink:href="#ad"/><use transform="matrix(0.06172839506172839,0,0,0.06172839506172839,12.345679012345679,0)" xlink:href="#af"/></g><g id="q"><use transform="matrix(0.06172839506172839,0,0,0.06172839506172839,0,0)" xlink:href="#ad"/><use transform="matrix(0.06172839506172839,0,0,0.06172839506172839,12.345679012345679,0)" xlink:href="#ag"/></g><g id="r"><use transform="matrix(0.06172839506172839,0,0,0.06172839506172839,0,0)" xlink:href="#ad"/><use transform="matrix(0.06172839506172839,0,0,0.06172839506172839,12.345679012345679,0)" xlink:href="#ah"/></g><g id="s"><use transform="matrix(0.06172839506172839,0,0,0.06172839506172839,0,0)" xlink:href="#ad"/><use transform="matrix(0.06172839506172839,0,0,0.06172839506172839,12.345679012345679,0)" xlink:href="#ai"/></g><g id="t"><use transform="matrix(0.06172839506172839,0,0,0.06172839506172839,0,0)" xlink:href="#ad"/><use transform="matrix(0.06172839506172839,0,0,0.06172839506172839,12.345679012345679,0)" xlink:href="#aj"/></g><g id="u"><use transform="matrix(0.06172839506172839,0,0,0.06172839506172839,0,0)" xlink:href="#ad"/><use transform="matrix(0.06172839506172839,0,0,0.06172839506172839,12.345679012345679,0)" xlink:href="#ak"/></g><g id="v"><use transform="matrix(0.06172839506172839,0,0,0.06172839506172839,0,0)" xlink:href="#ad"/><use transform="matrix(0.06172839506172839,0,0,0.06172839506172839,12.345679012345679,0)" xlink:href="#al"/></g><g id="w"><use transform="matrix(0.06172839506172839,0,0,0.06172839506172839,0,0)" xlink:href="#ae"/><use transform="matrix(0.06172839506172839,0,0,0.06172839506172839,12.345679012345679,0)" xlink:href="#am"/></g><g id="x"><use transform="matrix(0.06172839506172839,0,0,0.06172839506172839,0,0)" xlink:href="#ae"/><use transform="matrix(0.06172839506172839,0,0,0.06172839506172839,12.345679012345679,0)" xlink:href="#ad"/></g><g id="y"><use transform="matrix(0.06172839506172839,0,0,0.06172839506172839,0,0)" xlink:href="#ae"/><use transform="matrix(0.06172839506172839,0,0,0.06172839506172839,12.345679012345679,0)" xlink:href="#ae"/></g><g id="z"><use transform="matrix(0.06172839506172839,0,0,0.06172839506172839,0,0)" xlink:href="#ae"/><use transform="matrix(0.06172839506172839,0,0,0.06172839506172839,12.345679012345679,0)" xlink:href="#af"/></g><g id="A"><use transform="matrix(0.06172839506172839,0,0,0.06172839506172839,0,0)" xlink:href="#ae"/><use transform="matrix(0.06172839506172839,0,0,0.06172839506172839,12.345679012345679,0)" xlink:href="#ag"/></g><g id="B"><use transform="matrix(0.06172839506172839,0,0,0.06172839506172839,0,0)" xlink:href="#ae"/><use transform="matrix(0.06172839506172839,0,0,0.06172839506172839,12.345679012345679,0)" xlink:href="#ah"/></g><g id="C"><use transform="matrix(0.06172839506172839,0,0,0.06172839506172839,0,0)" xlink:href="#ae"/><use transform="matrix(0.06172839506172839,0,0,0.06172839506172839,12.345679012345679,0)" xlink:href="#ai"/></g><g id="D"><use transform="matrix(0.06172839506172839,0,0,0.06172839506172839,0,0)" xlink:href="#ae"/><use transform="matrix(0.06172839506172839,0,0,0.06172839506172839,12.345679012345679,0)" xlink:href="#aj"/></g><g id="E"><use transform="matrix(0.06172839506172839,0,0,0.06172839506172839,0,0)" xlink:href="#ae"/><use transform="matrix(0.06172839506172839,0,0,0.06172839506172839,12.345679012345679,0)" xlink:href="#ak"/></g><path fill="#333" d="M24-248c93 1 206-16 204 79-1 75-69 88-152 82V0H24v-248zm52 121c47 0 100 7 100-41 0-47-54-39-100-39v80" id="an"/><path fill="#333" d="M135-150c-39-12-60 13-60 57V0H25l-1-190h47c2 13-1 29 3 40 6-28 27-53 61-41v41" id="ao"/><path fill="#333" d="M110-194c64 0 96 36 96 99 0 64-35 99-97 99-61 0-95-36-95-99 0-62 34-99 96-99zm-1 164c35 0 45-28 45-65 0-40-10-65-43-65-34 0-45 26-45 65 0 36 10 65 43 65" id="ap"/><path fill="#333" d="M195-6C206 82 75 100 31 46c-4-6-6-13-8-21l49-6c3 16 16 24 34 25 40 0 42-37 40-79-11 22-30 35-61 35-53 0-70-43-70-97 0-56 18-96 73-97 30 0 46 14 59 34l2-30h47zm-90-29c32 0 41-27 41-63 0-35-9-62-40-62-32 0-39 29-40 63 0 36 9 62 39 62" id="aq"/><path fill="#333" d="M133-34C117-15 103 5 69 4 32 3 11-16 11-54c-1-60 55-63 116-61 1-26-3-47-28-47-18 1-26 9-28 27l-52-2c7-38 36-58 82-57s74 22 75 68l1 82c-1 14 12 18 25 15v27c-30 8-71 5-69-32zm-48 3c29 0 43-24 42-57-32 0-66-3-65 30 0 17 8 27 23 27" id="ar"/><path fill="#333" d="M220-157c-53 9-28 100-34 157h-49v-107c1-27-5-49-29-50C55-147 81-57 75 0H25l-1-190h47c2 12-1 28 3 38 10-53 101-56 108 0 13-22 24-43 59-42 82 1 51 116 57 194h-49v-107c-1-25-5-48-29-50" id="as"/><g id="F"><use transform="matrix(0.04938271604938272,0,0,0.04938271604938272,0,0)" xlink:href="#an"/><use transform="matrix(0.04938271604938272,0,0,0.04938271604938272,11.851851851851853,0)" xlink:href="#ao"/><use transform="matrix(0.04938271604938272,0,0,0.04938271604938272,18.765432098765434,0)" xlink:href="#ap"/><use transform="matrix(0.04938271604938272,0,0,0.04938271604938272,29.58024691358025,0)" xlink:href="#aq"/><use transform="matrix(0.04938271604938272,0,0,0.04938271604938272,40.39506172839506,0)" xlink:href="#ao"/><use transform="matrix(0.04938271604938272,0,0,0.04938271604938272,47.308641975308646,0)" xlink:href="#ar"/><use transform="matrix(0.04938271604938272,0,0,0.04938271604938272,57.18518518518519,0)" xlink:href="#as"/></g><path fill="#333" d="M23 0v-37h61v-169l-59 37v-38l62-41h46v211h57V0H23" id="at"/><use transform="matrix(0.04938271604938272,0,0,0.04938271604938272,0,0)" xlink:href="#at" id="G"/><path fill="#333" d="M182-182c0 78-84 86-111 141h115V0H12c-6-101 99-100 120-180 1-22-12-31-33-32-23 0-32 14-35 34l-49-3c5-45 32-70 84-70 51 0 83 22 83 69" id="au"/><use transform="matrix(0.04938271604938272,0,0,0.04938271604938272,0,0)" xlink:href="#au" id="H"/><path fill="#333" d="M128-127c34 4 56 21 59 58 7 91-148 94-172 28-4-9-6-17-7-26l51-5c1 24 16 35 40 36 23 0 39-12 38-36-1-31-31-36-65-34v-40c32 2 59-3 59-33 0-20-13-33-34-33s-33 13-35 32l-50-3c6-44 37-68 86-68 50 0 83 20 83 66 0 35-22 52-53 58" id="av"/><use transform="matrix(0.04938271604938272,0,0,0.04938271604938272,0,0)" xlink:href="#av" id="I"/><path fill="#333" d="M240-174c0 40-23 61-54 70L253 0h-59l-57-94H76V0H24v-248c93 4 217-23 216 74zM76-134c48-2 112 12 112-38 0-48-66-32-112-35v73" id="aw"/><path fill="#333" d="M25 0v-261h50V0H25" id="ax"/><path fill="#333" d="M128 0H69L1-190h53L99-40l48-150h52" id="ay"/><path fill="#333" d="M185-48c-13 30-37 53-82 52C43 2 14-33 14-96s30-98 90-98c62 0 83 45 84 108H66c0 31 8 55 39 56 18 0 30-7 34-22zm-45-69c5-46-57-63-70-21-2 6-4 13-4 21h74" id="az"/><g id="J"><use transform="matrix(0.04938271604938272,0,0,0.04938271604938272,0,0)" xlink:href="#aw"/><use transform="matrix(0.04938271604938272,0,0,0.04938271604938272,12.790123456790125,0)" xlink:href="#ap"/><use transform="matrix(0.04938271604938272,0,0,0.04938271604938272,23.60493827160494,0)" xlink:href="#ax"/><use transform="matrix(0.04938271604938272,0,0,0.04938271604938272,28.543209876543212,0)" xlink:href="#ax"/><use transform="matrix(0.04938271604938272,0,0,0.04938271604938272,33.48148148148148,0)" xlink:href="#ap"/><use transform="matrix(0.04938271604938272,0,0,0.04938271604938272,44.2962962962963,0)" xlink:href="#ay"/><use transform="matrix(0.04938271604938272,0,0,0.04938271604938272,54.17283950617284,0)" xlink:href="#az"/><use transform="matrix(0.04938271604938272,0,0,0.04938271604938272,64.0493827160494,0)" xlink:href="#ao"/></g><path fill="#3a414a" d="M205 0l-28-72H64L36 0H1l101-248h38L239 0h-34zm-38-99l-47-123c-12 45-31 82-46 123h93" id="aA"/><path fill="#3a414a" d="M84 4C-5 8 30-112 23-190h32v120c0 31 7 50 39 49 72-2 45-101 50-169h31l1 190h-30c-1-10 1-25-2-33-11 22-28 36-60 37" id="aB"/><path fill="#3a414a" d="M85-194c31 0 48 13 60 33l-1-100h32l1 261h-30c-2-10 0-23-3-31C134-8 116 4 85 4 32 4 16-35 15-94c0-66 23-100 70-100zm9 24c-40 0-46 34-46 75 0 40 6 74 45 74 42 0 51-32 51-76 0-42-9-74-50-73" id="aC"/><path fill="#3a414a" d="M100-194c62-1 85 37 85 99 1 63-27 99-86 99S16-35 15-95c0-66 28-99 85-99zM99-20c44 1 53-31 53-75 0-43-8-75-51-75s-53 32-53 75 10 74 51 75" id="aD"/><g id="K"><use transform="matrix(0.06172839506172839,0,0,0.06172839506172839,0,0)" xlink:href="#aA"/><use transform="matrix(0.06172839506172839,0,0,0.06172839506172839,14.814814814814813,0)" xlink:href="#aB"/><use transform="matrix(0.06172839506172839,0,0,0.06172839506172839,27.160493827160494,0)" xlink:href="#aC"/><use transform="matrix(0.06172839506172839,0,0,0.06172839506172839,39.50617283950617,0)" xlink:href="#Z"/><use transform="matrix(0.06172839506172839,0,0,0.06172839506172839,44.382716049382715,0)" xlink:href="#aD"/></g><path fill="#3a414a" d="M141 0L90-78 38 0H4l68-98-65-92h35l48 74 47-74h35l-64 92 68 98h-35" id="aE"/><path fill="#3a414a" d="M59-47c-2 24 18 29 38 22v24C64 9 27 4 27-40v-127H5v-23h24l9-43h21v43h35v23H59v120" id="aF"/><g id="L"><use transform="matrix(0.06172839506172839,0,0,0.06172839506172839,0,0)" xlink:href="#Y"/><use transform="matrix(0.06172839506172839,0,0,0.06172839506172839,11.049382716049381,0)" xlink:href="#W"/><use transform="matrix(0.06172839506172839,0,0,0.06172839506172839,23.39506172839506,0)" xlink:href="#aE"/><use transform="matrix(0.06172839506172839,0,0,0.06172839506172839,34.50617283950617,0)" xlink:href="#aF"/></g><path fill="#3a414a" d="M33 0v-248h34V0H33" id="aG"/><path fill="#3a414a" d="M177-190C167-65 218 103 67 71c-23-6-38-20-44-43l32-5c15 47 100 32 89-28v-30C133-14 115 1 83 1 29 1 15-40 15-95c0-56 16-97 71-98 29-1 48 16 59 35 1-10 0-23 2-32h30zM94-22c36 0 50-32 50-73 0-42-14-75-50-75-39 0-46 34-46 75s6 73 46 73" id="aH"/><g id="M"><use transform="matrix(0.06172839506172839,0,0,0.06172839506172839,0,0)" xlink:href="#aG"/><use transform="matrix(0.06172839506172839,0,0,0.06172839506172839,6.172839506172839,0)" xlink:href="#aa"/><use transform="matrix(0.06172839506172839,0,0,0.06172839506172839,24.629629629629626,0)" xlink:href="#U"/><use transform="matrix(0.06172839506172839,0,0,0.06172839506172839,36.9753086419753,0)" xlink:href="#aH"/><use transform="matrix(0.06172839506172839,0,0,0.06172839506172839,49.32098765432098,0)" xlink:href="#W"/></g><path fill="#3a414a" d="M212-179c-10-28-35-45-73-45-59 0-87 40-87 99 0 60 29 101 89 101 43 0 62-24 78-52l27 14C228-24 195 4 139 4 59 4 22-46 18-125c-6-104 99-153 187-111 19 9 31 26 39 46" id="aI"/><g id="N"><use transform="matrix(0.06172839506172839,0,0,0.06172839506172839,0,0)" xlink:href="#aI"/><use transform="matrix(0.06172839506172839,0,0,0.06172839506172839,15.987654320987653,0)" xlink:href="#aB"/><use transform="matrix(0.06172839506172839,0,0,0.06172839506172839,28.333333333333332,0)" xlink:href="#X"/><use transform="matrix(0.06172839506172839,0,0,0.06172839506172839,35.67901234567901,0)" xlink:href="#X"/><use transform="matrix(0.06172839506172839,0,0,0.06172839506172839,43.02469135802469,0)" xlink:href="#W"/><use transform="matrix(0.06172839506172839,0,0,0.06172839506172839,55.37037037037037,0)" xlink:href="#ab"/><use transform="matrix(0.06172839506172839,0,0,0.06172839506172839,67.71604938271605,0)" xlink:href="#aF"/></g><g id="O"><use transform="matrix(0.06172839506172839,0,0,0.06172839506172839,0,0)" xlink:href="#Y"/><use transform="matrix(0.06172839506172839,0,0,0.06172839506172839,12.716049382716047,0)" xlink:href="#Z"/><use transform="matrix(0.06172839506172839,0,0,0.06172839506172839,17.592592592592588,0)" xlink:href="#aa"/><use transform="matrix(0.06172839506172839,0,0,0.06172839506172839,36.04938271604938,0)" xlink:href="#W"/></g><path fill="#3a414a" d="M160-131c35 5 61 23 61 61C221 17 115-2 30 0v-248c76 3 177-17 177 60 0 33-19 50-47 57zm-97-11c50-1 110 9 110-42 0-47-63-36-110-37v79zm0 115c55-2 124 14 124-45 0-56-70-42-124-44v89" id="aJ"/><path fill="#3a414a" d="M101-234c-31-9-42 10-38 44h38v23H63V0H32v-167H5v-23h27c-7-52 17-82 69-68v24" id="aK"/><g id="P"><use transform="matrix(0.06172839506172839,0,0,0.06172839506172839,0,0)" xlink:href="#aJ"/><use transform="matrix(0.06172839506172839,0,0,0.06172839506172839,14.814814814814813,0)" xlink:href="#aB"/><use transform="matrix(0.06172839506172839,0,0,0.06172839506172839,27.160493827160494,0)" xlink:href="#aK"/><use transform="matrix(0.06172839506172839,0,0,0.06172839506172839,32.901234567901234,0)" xlink:href="#aK"/><use transform="matrix(0.06172839506172839,0,0,0.06172839506172839,39.074074074074076,0)" xlink:href="#W"/><use transform="matrix(0.06172839506172839,0,0,0.06172839506172839,51.41975308641975,0)" xlink:href="#X"/><use transform="matrix(0.06172839506172839,0,0,0.06172839506172839,58.76543209876543,0)" xlink:href="#W"/><use transform="matrix(0.06172839506172839,0,0,0.06172839506172839,71.11111111111111,0)" xlink:href="#aC"/></g><path fill="#333" d="M182-130c37 4 62 22 62 59C244 23 116-4 24 0v-248c84 5 203-23 205 63 0 31-19 50-47 55zM76-148c40-3 101 13 101-30 0-44-60-28-101-31v61zm0 110c48-3 116 14 116-37 0-48-69-32-116-35v72" id="aL"/><path fill="#333" d="M85 4C-2 5 27-109 22-190h50c7 57-23 150 33 157 60-5 35-97 40-157h50l1 190h-47c-2-12 1-28-3-38-12 25-28 42-61 42" id="aM"/><path fill="#333" d="M121-226c-27-7-43 5-38 36h38v33H83V0H34v-157H6v-33h28c-9-59 32-81 87-68v32" id="aN"/><path fill="#333" d="M114-157C55-157 80-60 75 0H25v-261h50l-1 109c12-26 28-41 61-42 86-1 58 113 63 194h-50c-7-57 23-157-34-157" id="aO"/><path fill="#333" d="M25-224v-37h50v37H25zM25 0v-190h50V0H25" id="aP"/><path fill="#333" d="M135-194c87-1 58 113 63 194h-50c-7-57 23-157-34-157-59 0-34 97-39 157H25l-1-190h47c2 12-1 28 3 38 12-26 28-41 61-42" id="aQ"/><path fill="#333" d="M88-194c31-1 46 15 58 34l-1-101h50l1 261h-48c-2-10 0-23-3-31C134-8 116 4 84 4 32 4 16-41 15-95c0-56 19-97 73-99zm17 164c33 0 40-30 41-66 1-37-9-64-41-64s-38 30-39 65c0 43 13 65 39 65" id="aR"/><g id="Q"><use transform="matrix(0.04938271604938272,0,0,0.04938271604938272,0,0)" xlink:href="#aL"/><use transform="matrix(0.04938271604938272,0,0,0.04938271604938272,12.790123456790125,0)" xlink:href="#aM"/><use transform="matrix(0.04938271604938272,0,0,0.04938271604938272,23.60493827160494,0)" xlink:href="#aN"/><use transform="matrix(0.04938271604938272,0,0,0.04938271604938272,29.481481481481485,0)" xlink:href="#aN"/><use transform="matrix(0.04938271604938272,0,0,0.04938271604938272,35.358024691358025,0)" xlink:href="#az"/><use transform="matrix(0.04938271604938272,0,0,0.04938271604938272,45.23456790123457,0)" xlink:href="#ao"/><use transform="matrix(0.04938271604938272,0,0,0.04938271604938272,52.14814814814815,0)" xlink:href="#aL"/><use transform="matrix(0.04938271604938272,0,0,0.04938271604938272,64.93827160493828,0)" xlink:href="#az"/><use transform="matrix(0.04938271604938272,0,0,0.04938271604938272,74.81481481481482,0)" xlink:href="#aO"/><use transform="matrix(0.04938271604938272,0,0,0.04938271604938272,85.62962962962963,0)" xlink:href="#aP"/><use transform="matrix(0.04938271604938272,0,0,0.04938271604938272,90.5679012345679,0)" xlink:href="#aQ"/><use transform="matrix(0.04938271604938272,0,0,0.04938271604938272,101.38271604938271,0)" xlink:href="#aR"/></g><path fill="#333" d="M199 0l-22-63H83L61 0H9l90-248h61L250 0h-51zm-33-102l-36-108c-10 38-24 72-36 108h72" id="aS"/><g id="R"><use transform="matrix(0.04938271604938272,0,0,0.04938271604938272,0,0)" xlink:href="#aL"/><use transform="matrix(0.04938271604938272,0,0,0.04938271604938272,12.790123456790125,0)" xlink:href="#aM"/><use transform="matrix(0.04938271604938272,0,0,0.04938271604938272,23.60493827160494,0)" xlink:href="#aN"/><use transform="matrix(0.04938271604938272,0,0,0.04938271604938272,29.481481481481485,0)" xlink:href="#aN"/><use transform="matrix(0.04938271604938272,0,0,0.04938271604938272,35.358024691358025,0)" xlink:href="#az"/><use transform="matrix(0.04938271604938272,0,0,0.04938271604938272,45.23456790123457,0)" xlink:href="#ao"/><use transform="matrix(0.04938271604938272,0,0,0.04938271604938272,52.14814814814815,0)" xlink:href="#aS"/><use transform="matrix(0.04938271604938272,0,0,0.04938271604938272,64.93827160493828,0)" xlink:href="#aO"/><use transform="matrix(0.04938271604938272,0,0,0.04938271604938272,75.75308641975309,0)" xlink:href="#az"/><use transform="matrix(0.04938271604938272,0,0,0.04938271604938272,85.62962962962963,0)" xlink:href="#ar"/><use transform="matrix(0.04938271604938272,0,0,0.04938271604938272,95.50617283950618,0)" xlink:href="#aR"/></g></defs></g></svg>